<svg width="224" height="86" viewBox="0 0 224 86" fill="none" xmlns="http://www.w3.org/2000/svg">
<circle cx="185.098" cy="46.1928" r="8.61722" stroke="#725DFF" stroke-width="3.04137"/>
<g filter="url(#filter0_d_74_122)">
<path d="M30.7263 55L40.2154 33.7104H45.0815L54.601 55H49.4307L41.6448 36.2043H43.5913L35.775 55H30.7263ZM35.4708 50.4379L36.7786 46.6971H47.7275L49.0657 50.4379H35.4708ZM56.8098 55V33.7104H67.2113C69.8877 33.7104 71.895 34.2173 73.2332 35.2311C74.5917 36.2449 75.2709 37.5831 75.2709 39.2457C75.2709 40.3609 74.9972 41.3341 74.4498 42.1654C73.9023 42.9764 73.1521 43.605 72.1992 44.0511C71.2462 44.4971 70.1513 44.7202 68.9145 44.7202L69.4923 43.4732C70.8305 43.4732 72.0167 43.6962 73.0507 44.1423C74.0848 44.5681 74.8857 45.2068 75.4534 46.0584C76.0414 46.91 76.3354 47.9542 76.3354 49.191C76.3354 51.0158 75.6156 52.4452 74.1761 53.4793C72.7365 54.4931 70.6177 55 67.8196 55H56.8098ZM61.7064 51.2895H67.4546C68.732 51.2895 69.6951 51.0868 70.3439 50.6813C71.013 50.2555 71.3476 49.5864 71.3476 48.6739C71.3476 47.7818 71.013 47.1229 70.3439 46.6971C69.6951 46.251 68.732 46.028 67.4546 46.028H61.3415V42.4391H66.603C67.7993 42.4391 68.7117 42.2364 69.3403 41.8309C69.9891 41.4051 70.3135 40.7664 70.3135 39.9148C70.3135 39.0835 69.9891 38.4651 69.3403 38.0596C68.7117 37.6338 67.7993 37.4209 66.603 37.4209H61.7064V51.2895Z" fill="#FFDF34"/>
<path d="M79.1228 48.3394V44.5377H87.7299V48.3394H79.1228Z" fill="black"/>
<path d="M98.7926 55.365C97.0895 55.365 95.4573 55.1419 93.896 54.6959C92.3348 54.2295 91.0777 53.6314 90.1247 52.9015L91.7975 49.191C92.7099 49.8398 93.7845 50.3771 95.0213 50.8029C96.2784 51.2084 97.5457 51.4112 98.823 51.4112C99.7963 51.4112 100.577 51.3199 101.165 51.1375C101.773 50.9347 102.219 50.661 102.503 50.3163C102.787 49.9716 102.929 49.5762 102.929 49.1302C102.929 48.5624 102.706 48.1164 102.26 47.792C101.814 47.4473 101.226 47.1735 100.496 46.9708C99.7659 46.7477 98.9548 46.545 98.0627 46.3625C97.1908 46.1597 96.3088 45.9164 95.4167 45.6326C94.5448 45.3487 93.7439 44.9838 93.014 44.5377C92.2841 44.0916 91.686 43.5036 91.2196 42.7737C90.7735 42.0438 90.5505 41.1111 90.5505 39.9756C90.5505 38.7591 90.8749 37.6541 91.5237 36.6605C92.1928 35.6467 93.1864 34.8459 94.5043 34.2579C95.8425 33.6496 97.5152 33.3454 99.5226 33.3454C100.861 33.3454 102.179 33.5076 103.476 33.8321C104.774 34.1362 105.92 34.6025 106.913 35.2311L105.392 38.972C104.399 38.4043 103.405 37.9886 102.412 37.725C101.418 37.4412 100.445 37.2992 99.4921 37.2992C98.5392 37.2992 97.7586 37.4107 97.1503 37.6338C96.542 37.8568 96.1061 38.1508 95.8425 38.5158C95.5789 38.8605 95.4471 39.266 95.4471 39.7323C95.4471 40.2798 95.6701 40.7258 96.1162 41.0705C96.5623 41.3949 97.1503 41.6585 97.8802 41.8613C98.6101 42.064 99.411 42.2668 100.283 42.4696C101.175 42.6723 102.057 42.9055 102.929 43.1691C103.821 43.4327 104.632 43.7875 105.362 44.2335C106.092 44.6796 106.68 45.2676 107.126 45.9975C107.592 46.7275 107.825 47.65 107.825 48.7652C107.825 49.9615 107.491 51.0564 106.822 52.0499C106.153 53.0434 105.149 53.8443 103.811 54.4526C102.493 55.0608 100.82 55.365 98.7926 55.365ZM117.549 55.2433C115.622 55.2433 114.122 54.7567 113.047 53.7835C111.973 52.7899 111.435 51.3199 111.435 49.3735V35.0182H116.18V49.3126C116.18 50.002 116.362 50.5393 116.727 50.9246C117.092 51.2895 117.589 51.472 118.218 51.472C118.968 51.472 119.607 51.2693 120.134 50.8637L121.411 54.2092C120.925 54.5539 120.337 54.8175 119.647 55C118.978 55.1622 118.279 55.2433 117.549 55.2433ZM108.911 42.652V39.0024H120.255V42.652H108.911ZM130.978 55.2433C129.62 55.2433 128.403 54.9797 127.329 54.4526C126.274 53.9254 125.453 53.1245 124.865 52.0499C124.277 50.955 123.983 49.5661 123.983 47.8832V38.6374H128.728V47.1837C128.728 48.5422 129.012 49.5458 129.579 50.1946C130.167 50.8232 130.989 51.1375 132.043 51.1375C132.773 51.1375 133.422 50.9854 133.989 50.6813C134.557 50.3568 135.003 49.8702 135.328 49.2214C135.652 48.5523 135.814 47.721 135.814 46.7275V38.6374H140.559V55H136.057V50.4988L136.879 51.8066C136.331 52.942 135.52 53.8037 134.446 54.3917C133.391 54.9594 132.236 55.2433 130.978 55.2433ZM151.98 55.2433C150.439 55.2433 149.05 54.8986 147.813 54.2092C146.576 53.4996 145.593 52.5162 144.863 51.2591C144.153 50.002 143.798 48.5219 143.798 46.8187C143.798 45.0953 144.153 43.605 144.863 42.3479C145.593 41.0908 146.576 40.1176 147.813 39.4282C149.05 38.7388 150.439 38.3941 151.98 38.3941C153.359 38.3941 154.565 38.6983 155.599 39.3065C156.633 39.9148 157.434 40.8374 158.002 42.0742C158.569 43.311 158.853 44.8925 158.853 46.8187C158.853 48.7246 158.58 50.3062 158.032 51.5633C157.485 52.8001 156.694 53.7226 155.66 54.3309C154.646 54.9392 153.419 55.2433 151.98 55.2433ZM152.801 51.3504C153.571 51.3504 154.271 51.1679 154.899 50.8029C155.528 50.4379 156.025 49.9209 156.39 49.2518C156.775 48.5624 156.968 47.7514 156.968 46.8187C156.968 45.8658 156.775 45.0547 156.39 44.3856C156.025 43.7165 155.528 43.1995 154.899 42.8345C154.271 42.4696 153.571 42.2871 152.801 42.2871C152.01 42.2871 151.301 42.4696 150.672 42.8345C150.043 43.1995 149.537 43.7165 149.151 44.3856C148.786 45.0547 148.604 45.8658 148.604 46.8187C148.604 47.7514 148.786 48.5624 149.151 49.2518C149.537 49.9209 150.043 50.4379 150.672 50.8029C151.301 51.1679 152.01 51.3504 152.801 51.3504ZM157.089 55V51.6545L157.181 46.7883L156.876 41.9525V32.433H161.621V55H157.089ZM166.012 55V38.6374H170.757V55H166.012ZM168.384 36.3564C167.513 36.3564 166.803 36.103 166.255 35.5961C165.708 35.0892 165.434 34.4606 165.434 33.7104C165.434 32.9602 165.708 32.3317 166.255 31.8248C166.803 31.3179 167.513 31.0644 168.384 31.0644C169.256 31.0644 169.966 31.3077 170.513 31.7943C171.061 32.2607 171.335 32.869 171.335 33.6192C171.335 34.4099 171.061 35.0689 170.513 35.5961C169.986 36.103 169.277 36.3564 168.384 36.3564Z" fill="#F8CD09"/>
<path d="M30.7263 55L29.5985 54.4973L28.8241 56.2347H30.7263V55ZM40.2154 33.7104V32.4757H39.4139L39.0876 33.2077L40.2154 33.7104ZM45.0815 33.7104L46.2087 33.2064L45.882 32.4757H45.0815V33.7104ZM54.601 55V56.2347H56.5057L55.7282 54.496L54.601 55ZM49.4307 55L48.29 55.4725L48.6057 56.2347H49.4307V55ZM41.6448 36.2043V34.9696H39.7968L40.5041 36.6769L41.6448 36.2043ZM43.5913 36.2043L44.7314 36.6784L45.442 34.9696H43.5913V36.2043ZM35.775 55V56.2347H36.5987L36.915 55.4741L35.775 55ZM35.4708 50.4379L34.3052 50.0305L33.7311 51.6727H35.4708V50.4379ZM36.7786 46.6971V45.4623H35.9022L35.613 46.2896L36.7786 46.6971ZM47.7275 46.6971L48.8901 46.2812L48.5972 45.4623H47.7275V46.6971ZM49.0657 50.4379V51.6727H50.8188L50.2283 50.0221L49.0657 50.4379ZM31.8541 55.5027L41.3431 34.2131L39.0876 33.2077L29.5985 54.4973L31.8541 55.5027ZM40.2154 34.9452H45.0815V32.4757H40.2154V34.9452ZM43.9544 34.2144L53.4738 55.504L55.7282 54.496L46.2087 33.2064L43.9544 34.2144ZM54.601 53.7653H49.4307V56.2347H54.601V53.7653ZM50.5714 54.5275L42.7855 35.7318L40.5041 36.6769L48.29 55.4725L50.5714 54.5275ZM41.6448 37.4391H43.5913V34.9696H41.6448V37.4391ZM42.4512 35.7302L34.6349 54.5259L36.915 55.4741L44.7314 36.6784L42.4512 35.7302ZM35.775 53.7653H30.7263V56.2347H35.775V53.7653ZM36.6364 50.8454L37.9442 47.1045L35.613 46.2896L34.3052 50.0305L36.6364 50.8454ZM36.7786 47.9318H47.7275V45.4623H36.7786V47.9318ZM46.5649 47.1129L47.9031 50.8538L50.2283 50.0221L48.8901 46.2812L46.5649 47.1129ZM49.0657 49.2032H35.4708V51.6727H49.0657V49.2032ZM56.8098 55H55.5751V56.2347H56.8098V55ZM56.8098 33.7104V32.4757H55.5751V33.7104H56.8098ZM73.2332 35.2311L72.4876 36.2153L72.4947 36.2207L73.2332 35.2311ZM74.4498 42.1654L75.4733 42.8563L75.481 42.8445L74.4498 42.1654ZM72.1992 44.0511L72.7226 45.1694L72.7226 45.1694L72.1992 44.0511ZM68.9145 44.7202L67.7942 44.201L66.9814 45.9549H68.9145V44.7202ZM69.4923 43.4732V42.2385H68.7037L68.372 42.954L69.4923 43.4732ZM73.0507 44.1423L72.5617 45.2761L72.5711 45.2801L72.5806 45.284L73.0507 44.1423ZM75.4534 46.0584L74.4261 46.7433L74.4316 46.7517L74.4374 46.7599L75.4534 46.0584ZM74.1761 53.4793L74.887 54.4889L74.8964 54.4822L74.1761 53.4793ZM61.7064 51.2895H60.4717V52.5243H61.7064V51.2895ZM70.3439 50.6813L70.9984 51.7283L71.0068 51.723L70.3439 50.6813ZM70.3439 46.6971L69.6444 47.7145L69.6625 47.727L69.681 47.7388L70.3439 46.6971ZM61.3415 46.028H60.1067V47.2627H61.3415V46.028ZM61.3415 42.4391V41.2044H60.1067V42.4391H61.3415ZM69.3403 41.8309L70.0097 42.8684L70.0177 42.8632L69.3403 41.8309ZM69.3403 38.0596L68.6478 39.0818L68.6666 39.0946L68.6859 39.1066L69.3403 38.0596ZM61.7064 37.4209V36.1861H60.4717V37.4209H61.7064ZM58.0446 55V33.7104H55.5751V55H58.0446ZM56.8098 34.9452H67.2113V32.4757H56.8098V34.9452ZM67.2113 34.9452C69.767 34.9452 71.4581 35.4353 72.4876 36.2153L73.9788 34.2469C72.332 32.9993 70.0084 32.4757 67.2113 32.4757V34.9452ZM72.4947 36.2207C73.5481 37.0067 74.0362 37.9817 74.0362 39.2457H76.5057C76.5057 37.1845 75.6353 35.483 73.9717 34.2415L72.4947 36.2207ZM74.0362 39.2457C74.0362 40.1495 73.8176 40.8803 73.4186 41.4863L75.481 42.8445C76.1768 41.7879 76.5057 40.5722 76.5057 39.2457H74.0362ZM73.4264 41.4746C73.0133 42.0866 72.4422 42.574 71.6757 42.9328L72.7226 45.1694C73.862 44.636 74.7914 43.8663 75.4732 42.8562L73.4264 41.4746ZM71.6757 42.9328C70.9129 43.2898 70.0019 43.4854 68.9145 43.4854V45.9549C70.3007 45.9549 71.5795 45.7044 72.7226 45.1694L71.6757 42.9328ZM70.0348 45.2393L70.6126 43.9924L68.372 42.954L67.7942 44.201L70.0348 45.2393ZM69.4923 44.708C70.6935 44.708 71.7083 44.9079 72.5617 45.2761L73.5398 43.0086C72.3251 42.4845 70.9676 42.2385 69.4923 42.2385V44.708ZM72.5806 45.284C73.4096 45.6254 74.0071 46.1149 74.4261 46.7433L76.4808 45.3735C75.7643 44.2987 74.76 43.5108 73.5209 43.0006L72.5806 45.284ZM74.4374 46.7599C74.857 47.3677 75.1007 48.1549 75.1007 49.191H77.5702C77.5702 47.7534 77.2258 46.4522 76.4695 45.3568L74.4374 46.7599ZM75.1007 49.191C75.1007 50.6321 74.5612 51.6824 73.4557 52.4765L74.8964 54.4822C76.67 53.2081 77.5702 51.3995 77.5702 49.191H75.1007ZM73.4651 52.4698C72.3236 53.2737 70.5014 53.7653 67.8196 53.7653V56.2347C70.7339 56.2347 73.1493 55.7126 74.887 54.4888L73.4651 52.4698ZM67.8196 53.7653H56.8098V56.2347H67.8196V53.7653ZM61.7064 52.5243H67.4546V50.0548H61.7064V52.5243ZM67.4546 52.5243C68.8252 52.5243 70.0621 52.3134 70.9983 51.7283L69.6895 49.6342C69.3281 49.8601 68.6388 50.0548 67.4546 50.0548V52.5243ZM71.0068 51.723C72.0908 51.0332 72.5823 49.9339 72.5823 48.6739H70.1128C70.1128 49.2388 69.9353 49.4777 69.681 49.6395L71.0068 51.723ZM72.5823 48.6739C72.5823 47.422 72.0817 46.3393 71.0068 45.6554L69.681 47.7388C69.9444 47.9064 70.1128 48.1416 70.1128 48.6739H72.5823ZM71.0434 45.6796C70.0967 45.0287 68.84 44.7932 67.4546 44.7932V47.2627C68.624 47.2627 69.2935 47.4733 69.6444 47.7145L71.0434 45.6796ZM67.4546 44.7932H61.3415V47.2627H67.4546V44.7932ZM62.5762 46.028V42.4391H60.1067V46.028H62.5762ZM61.3415 43.6739H66.603V41.2044H61.3415V43.6739ZM66.603 43.6739C67.9071 43.6739 69.0951 43.4584 70.0097 42.8684L68.6709 40.7933C68.3283 41.0143 67.6916 41.2044 66.603 41.2044V43.6739ZM70.0177 42.8632C71.0526 42.184 71.5483 41.1345 71.5483 39.9148H69.0788C69.0788 40.3983 68.9256 40.6261 68.6628 40.7986L70.0177 42.8632ZM71.5483 39.9148C71.5483 38.7019 71.0404 37.6661 69.9947 37.0125L68.6859 39.1066C68.9378 39.2641 69.0788 39.4651 69.0788 39.9148H71.5483ZM70.0328 37.0373C69.1132 36.4143 67.9152 36.1861 66.603 36.1861V38.6556C67.6834 38.6556 68.3103 38.8532 68.6478 39.0818L70.0328 37.0373ZM66.603 36.1861H61.7064V38.6556H66.603V36.1861ZM60.4717 37.4209V51.2895H62.9412V37.4209H60.4717ZM79.1228 48.3394H77.8881V49.5741H79.1228V48.3394ZM79.1228 44.5377V43.3029H77.8881V44.5377H79.1228ZM87.7299 44.5377H88.9646V43.3029H87.7299V44.5377ZM87.7299 48.3394V49.5741H88.9646V48.3394H87.7299ZM80.3575 48.3394V44.5377H77.8881V48.3394H80.3575ZM79.1228 45.7724H87.7299V43.3029H79.1228V45.7724ZM86.4951 44.5377V48.3394H88.9646V44.5377H86.4951ZM87.7299 47.1047H79.1228V49.5741H87.7299V47.1047ZM93.896 54.6959L93.5426 55.879L93.5497 55.8811L93.5568 55.8831L93.896 54.6959ZM90.1247 52.9015L88.9991 52.394L88.5967 53.2864L89.3739 53.8817L90.1247 52.9015ZM91.7975 49.191L92.513 48.1847L91.2891 47.3143L90.6718 48.6835L91.7975 49.191ZM95.0213 50.8029L94.6194 51.9704L94.6308 51.9743L94.6423 51.978L95.0213 50.8029ZM101.165 51.1375L101.531 52.3167L101.543 52.3129L101.555 52.3088L101.165 51.1375ZM102.503 50.3163L101.55 49.5314L101.55 49.5314L102.503 50.3163ZM102.26 47.792L101.505 48.769L101.519 48.78L101.534 48.7905L102.26 47.792ZM100.496 46.9708L100.135 48.1516L100.15 48.1563L100.165 48.1605L100.496 46.9708ZM98.0627 46.3625L97.783 47.5652L97.7991 47.5689L97.8153 47.5722L98.0627 46.3625ZM95.4167 45.6326L95.0344 46.8067L95.0423 46.8092L95.4167 45.6326ZM93.014 44.5377L92.3702 45.5913L92.3702 45.5913L93.014 44.5377ZM91.2196 42.7737L90.166 43.4175L90.1725 43.4281L90.1791 43.4385L91.2196 42.7737ZM91.5237 36.6605L90.4932 35.9804L90.4899 35.9854L91.5237 36.6605ZM94.5043 34.2579L95.0074 35.3855L95.0152 35.3819L94.5043 34.2579ZM103.476 33.8321L103.177 35.0299L103.186 35.0321L103.195 35.0342L103.476 33.8321ZM106.913 35.2311L108.057 35.6961L108.446 34.7396L107.573 34.1876L106.913 35.2311ZM105.392 38.972L104.78 40.044L106.005 40.7441L106.536 39.437L105.392 38.972ZM102.412 37.725L102.073 38.9123L102.084 38.9155L102.095 38.9185L102.412 37.725ZM97.1503 37.6338L96.7252 36.4745L96.7252 36.4745L97.1503 37.6338ZM95.8425 38.5158L96.8233 39.2658L96.8336 39.2524L96.8435 39.2387L95.8425 38.5158ZM96.1162 41.0705L95.3612 42.0476L95.3754 42.0585L95.39 42.0691L96.1162 41.0705ZM97.8802 41.8613L97.5497 43.051L97.5497 43.051L97.8802 41.8613ZM100.283 42.4696L100.003 43.6722L100.009 43.6736L100.283 42.4696ZM102.929 43.1691L102.572 44.351L102.579 44.3532L102.929 43.1691ZM105.362 44.2335L106.006 43.18L106.006 43.18L105.362 44.2335ZM107.126 45.9975L106.072 46.6414L106.079 46.6519L106.085 46.6623L107.126 45.9975ZM106.822 52.0499L107.846 52.7396L107.846 52.7396L106.822 52.0499ZM103.811 54.4526L103.3 53.3285L103.293 53.3315L103.811 54.4526ZM98.7926 54.1302C97.1986 54.1302 95.6809 53.9217 94.2352 53.5086L93.5568 55.8831C95.2336 56.3622 96.9804 56.5997 98.7926 56.5997V54.1302ZM94.2494 53.5128C92.7838 53.075 91.6752 52.5338 90.8755 51.9212L89.3739 53.8817C90.4801 54.729 91.8857 55.384 93.5426 55.879L94.2494 53.5128ZM91.2504 53.4089L92.9231 49.6984L90.6718 48.6835L88.9991 52.394L91.2504 53.4089ZM91.0819 50.1972C92.1052 50.9249 93.2892 51.5125 94.6194 51.9704L95.4232 49.6354C94.2798 49.2418 93.3146 48.7547 92.513 48.1847L91.0819 50.1972ZM94.6423 51.978C96.0176 52.4217 97.4126 52.6459 98.823 52.6459V50.1764C97.6787 50.1764 96.5392 49.9952 95.4004 49.6278L94.6423 51.978ZM98.823 52.6459C99.8572 52.6459 100.776 52.5509 101.531 52.3167L100.799 49.9582C100.378 50.089 99.7354 50.1764 98.823 50.1764V52.6459ZM101.555 52.3088C102.293 52.063 102.974 51.6869 103.456 51.1012L101.55 49.5314C101.465 49.635 101.254 49.8064 100.774 49.9661L101.555 52.3088ZM103.456 51.1012C103.922 50.5357 104.164 49.8629 104.164 49.1302H101.694C101.694 49.2895 101.652 49.4075 101.55 49.5314L103.456 51.1012ZM104.164 49.1302C104.164 48.1811 103.762 47.3581 102.986 46.7934L101.534 48.7905C101.649 48.8747 101.694 48.9438 101.694 49.1302H104.164ZM103.015 46.8149C102.407 46.3452 101.66 46.0128 100.826 45.7811L100.165 48.1605C100.791 48.3343 101.22 48.5493 101.505 48.769L103.015 46.8149ZM100.857 45.7899C100.083 45.5536 99.2335 45.3417 98.3101 45.1528L97.8153 47.5722C98.6762 47.7483 99.4487 47.9419 100.135 48.1516L100.857 45.7899ZM98.3424 45.1599C97.5038 44.9648 96.6534 44.7303 95.7911 44.456L95.0423 46.8092C95.9642 47.1025 96.8778 47.3547 97.783 47.5652L98.3424 45.1599ZM95.799 44.4585C95.0122 44.2023 94.2999 43.8765 93.6579 43.4841L92.3702 45.5913C93.188 46.091 94.0775 46.4951 95.0344 46.8067L95.799 44.4585ZM93.6579 43.4841C93.09 43.1371 92.6268 42.6829 92.2601 42.1089L90.1791 43.4385C90.7451 44.3244 91.4781 45.0461 92.3702 45.5913L93.6579 43.4841ZM92.2732 42.1298C91.9784 41.6474 91.7853 40.9563 91.7853 39.9756H89.3158C89.3158 41.2659 89.5687 42.4401 90.166 43.4175L92.2732 42.1298ZM91.7853 39.9756C91.7853 38.9925 92.0433 38.1231 92.5576 37.3357L90.4899 35.9854C89.7065 37.185 89.3158 38.5257 89.3158 39.9756H91.7853ZM92.5543 37.3407C93.0711 36.5576 93.8633 35.8959 95.0074 35.3855L94.0012 33.1302C92.5094 33.7958 91.3146 34.7359 90.4932 35.9804L92.5543 37.3407ZM95.0152 35.3819C96.1456 34.8681 97.6308 34.5802 99.5226 34.5802V32.1107C97.3997 32.1107 95.5394 32.4311 93.9933 33.1338L95.0152 35.3819ZM99.5226 34.5802C100.76 34.5802 101.977 34.73 103.177 35.0299L103.776 32.6342C102.38 32.2853 100.962 32.1107 99.5226 32.1107V34.5802ZM103.195 35.0342C104.376 35.3111 105.39 35.7288 106.253 36.2745L107.573 34.1876C106.449 33.4763 105.172 32.9613 103.758 32.6299L103.195 35.0342ZM105.769 34.7661L104.249 38.507L106.536 39.437L108.057 35.6961L105.769 34.7661ZM106.005 37.8999C104.929 37.285 103.836 36.8255 102.728 36.5316L102.095 38.9185C102.974 39.1517 103.869 39.5235 104.78 40.044L106.005 37.8999ZM102.751 36.5378C101.656 36.225 100.569 36.0645 99.4921 36.0645V38.534C100.321 38.534 101.18 38.6573 102.073 38.9123L102.751 36.5378ZM99.4921 36.0645C98.4561 36.0645 97.5177 36.1839 96.7252 36.4745L97.5753 38.793C97.9994 38.6375 98.6223 38.534 99.4921 38.534V36.0645ZM96.7252 36.4745C95.9827 36.7468 95.2997 37.1584 94.8415 37.7928L96.8435 39.2387C96.9124 39.1432 97.1014 38.9668 97.5753 38.793L96.7252 36.4745ZM94.8617 37.7657C94.4208 38.3423 94.2124 39.0164 94.2124 39.7323H96.6819C96.6819 39.5155 96.7371 39.3786 96.8233 39.2658L94.8617 37.7657ZM94.2124 39.7323C94.2124 40.6753 94.6231 41.4772 95.3612 42.0476L96.8712 40.0935C96.7172 39.9745 96.6819 39.8843 96.6819 39.7323H94.2124ZM95.39 42.0691C95.9909 42.5062 96.727 42.8224 97.5497 43.051L98.2107 40.6716C97.5736 40.4946 97.1336 40.2837 96.8425 40.0719L95.39 42.0691ZM97.5497 43.051C98.2992 43.2592 99.1173 43.4662 100.003 43.6722L100.563 41.2669C99.7048 41.0674 98.9211 40.8689 98.2107 40.6716L97.5497 43.051ZM100.009 43.6736C100.873 43.87 101.727 44.0958 102.572 44.351L103.286 41.9872C102.387 41.7152 101.477 41.4746 100.557 41.2655L100.009 43.6736ZM102.579 44.3532C103.377 44.5889 104.088 44.9019 104.718 45.2871L106.006 43.18C105.176 42.6731 104.265 42.2764 103.279 41.9849L102.579 44.3532ZM104.718 45.2871C105.281 45.6311 105.728 46.0786 106.072 46.6414L108.18 45.3537C107.631 44.4566 106.903 43.7282 106.006 43.18L104.718 45.2871ZM106.085 46.6623C106.393 47.144 106.591 47.8187 106.591 48.7652H109.06C109.06 47.4813 108.791 46.3109 108.166 45.3328L106.085 46.6623ZM106.591 48.7652C106.591 49.7154 106.33 50.5702 105.798 51.3601L107.846 52.7396C108.652 51.5425 109.06 50.2075 109.06 48.7652H106.591ZM105.798 51.3601C105.282 52.1253 104.477 52.7933 103.3 53.3285L104.322 55.5766C105.821 54.8953 107.023 53.9614 107.846 52.7396L105.798 51.3601ZM103.293 53.3315C102.189 53.8413 100.708 54.1302 98.7926 54.1302V56.5997C100.933 56.5997 102.797 56.2803 104.328 55.5737L103.293 53.3315ZM113.047 53.7835L112.209 54.6901L112.219 54.6986L113.047 53.7835ZM111.435 35.0182V33.7835H110.201V35.0182H111.435ZM116.18 35.0182H117.415V33.7835H116.18V35.0182ZM116.727 50.9246L115.831 51.7738L115.843 51.7859L115.854 51.7977L116.727 50.9246ZM120.134 50.8637L121.287 50.4233L120.696 48.8737L119.381 49.885L120.134 50.8637ZM121.411 54.2092L122.125 55.2168L122.906 54.6634L122.565 53.7688L121.411 54.2092ZM119.647 55L119.938 56.2L119.951 56.1969L119.963 56.1936L119.647 55ZM108.911 42.652H107.676V43.8868H108.911V42.652ZM108.911 39.0024V37.7676H107.676V39.0024H108.911ZM120.255 39.0024H121.49V37.7676H120.255V39.0024ZM120.255 42.652V43.8868H121.49V42.652H120.255ZM117.549 54.0086C115.826 54.0086 114.658 53.576 113.876 52.8683L112.219 54.6986C113.586 55.9373 115.419 56.4781 117.549 56.4781V54.0086ZM113.886 52.8768C113.14 52.1871 112.67 51.0946 112.67 49.3735H110.201C110.201 51.5453 110.806 53.3928 112.209 54.6901L113.886 52.8768ZM112.67 49.3735V35.0182H110.201V49.3735H112.67ZM111.435 36.2529H116.18V33.7835H111.435V36.2529ZM114.945 35.0182V49.3126H117.415V35.0182H114.945ZM114.945 49.3126C114.945 50.2202 115.19 51.0969 115.831 51.7738L117.624 50.0754C117.535 49.9818 117.415 49.7838 117.415 49.3126H114.945ZM115.854 51.7977C116.5 52.4429 117.338 52.7068 118.218 52.7068V50.2373C117.841 50.2373 117.685 50.1362 117.601 50.0515L115.854 51.7977ZM118.218 52.7068C119.204 52.7068 120.116 52.435 120.887 51.8424L119.381 49.885C119.097 50.1035 118.732 50.2373 118.218 50.2373V52.7068ZM118.98 51.3042L120.258 54.6497L122.565 53.7688L121.287 50.4233L118.98 51.3042ZM120.697 53.2017C120.352 53.4462 119.905 53.6544 119.331 53.8064L119.963 56.1936C120.768 55.9806 121.497 55.6617 122.125 55.2168L120.697 53.2017ZM119.356 53.8C118.788 53.9378 118.186 54.0086 117.549 54.0086V56.4781C118.371 56.4781 119.168 56.3866 119.938 56.2L119.356 53.8ZM110.146 42.652V39.0024H107.676V42.652H110.146ZM108.911 40.2371H120.255V37.7676H108.911V40.2371ZM119.021 39.0024V42.652H121.49V39.0024H119.021ZM120.255 41.4173H108.911V43.8868H120.255V41.4173ZM127.329 54.4526L126.777 55.557L126.785 55.5611L127.329 54.4526ZM124.865 52.0499L123.777 52.6341L123.782 52.6426L124.865 52.0499ZM123.983 38.6374V37.4027H122.749V38.6374H123.983ZM128.728 38.6374H129.963V37.4027H128.728V38.6374ZM129.579 50.1946L128.65 51.0077L128.664 51.0232L128.678 51.0382L129.579 50.1946ZM133.989 50.6813L134.572 51.7697L134.587 51.7617L134.602 51.7533L133.989 50.6813ZM135.328 49.2214L136.432 49.7736L136.435 49.7669L136.439 49.7601L135.328 49.2214ZM135.814 38.6374V37.4027H134.579V38.6374H135.814ZM140.559 38.6374H141.793V37.4027H140.559V38.6374ZM140.559 55V56.2347H141.793V55H140.559ZM136.057 55H134.823V56.2347H136.057V55ZM136.057 50.4988L137.103 49.8422L134.823 46.2104V50.4988H136.057ZM136.879 51.8066L137.991 52.3428L138.287 51.728L137.924 51.15L136.879 51.8066ZM134.446 54.3917L135.031 55.4789L135.038 55.4749L134.446 54.3917ZM130.978 54.0086C129.783 54.0086 128.756 53.7776 127.873 53.344L126.785 55.5611C128.05 56.1819 129.457 56.4781 130.978 56.4781V54.0086ZM127.881 53.3482C127.061 52.9381 126.421 52.3203 125.948 51.4572L123.782 52.6426C124.486 53.9287 125.488 54.9127 126.777 55.5569L127.881 53.3482ZM125.953 51.4657C125.49 50.6027 125.218 49.4312 125.218 47.8832H122.749C122.749 49.7009 123.065 51.3073 123.777 52.6341L125.953 51.4657ZM125.218 47.8832V38.6374H122.749V47.8832H125.218ZM123.983 39.8722H128.728V37.4027H123.983V39.8722ZM127.493 38.6374V47.1837H129.963V38.6374H127.493ZM127.493 47.1837C127.493 48.6776 127.799 50.0354 128.65 51.0077L130.509 49.3815C130.224 49.0562 129.963 48.4067 129.963 47.1837H127.493ZM128.678 51.0382C129.55 51.9708 130.729 52.3722 132.043 52.3722V49.9027C131.248 49.9027 130.785 49.6756 130.481 49.3511L128.678 51.0382ZM132.043 52.3722C132.949 52.3722 133.803 52.182 134.572 51.7697L133.406 49.5929C133.041 49.7887 132.597 49.9027 132.043 49.9027V52.3722ZM134.602 51.7533C135.404 51.2949 136.011 50.6157 136.432 49.7736L134.223 48.6692C133.995 49.1248 133.71 49.4188 133.377 49.6092L134.602 51.7533ZM136.439 49.7601C136.867 48.8765 137.049 47.8478 137.049 46.7275H134.579C134.579 47.5942 134.437 48.2281 134.217 48.6827L136.439 49.7601ZM137.049 46.7275V38.6374H134.579V46.7275H137.049ZM135.814 39.8722H140.559V37.4027H135.814V39.8722ZM139.324 38.6374V55H141.793V38.6374H139.324ZM140.559 53.7653H136.057V56.2347H140.559V53.7653ZM137.292 55V50.4988H134.823V55H137.292ZM135.012 51.1554L135.833 52.4632L137.924 51.15L137.103 49.8422L135.012 51.1554ZM135.766 51.2703C135.327 52.1809 134.695 52.848 133.853 53.3085L135.038 55.4749C136.346 54.7595 137.335 53.7031 137.991 52.3428L135.766 51.2703ZM133.86 53.3046C132.995 53.7705 132.042 54.0086 130.978 54.0086V56.4781C132.429 56.4781 133.788 56.1484 135.031 55.4789L133.86 53.3046ZM147.813 54.2092L147.199 55.2802L147.205 55.284L147.212 55.2878L147.813 54.2092ZM144.863 51.2591L143.788 51.8661L143.791 51.8726L143.795 51.8791L144.863 51.2591ZM144.863 42.3479L143.795 41.7279L143.791 41.7344L143.788 41.7409L144.863 42.3479ZM147.813 39.4282L147.212 38.3497L147.212 38.3497L147.813 39.4282ZM155.599 39.3065L156.225 38.2423L156.225 38.2423L155.599 39.3065ZM158.002 42.0742L159.124 41.5591L159.124 41.5591L158.002 42.0742ZM158.032 51.5633L159.161 52.063L159.164 52.0562L158.032 51.5633ZM155.66 54.3309L155.034 53.2666L155.025 53.2721L155.66 54.3309ZM154.899 50.8029L154.279 49.7351L154.279 49.7351L154.899 50.8029ZM156.39 49.2518L155.312 48.6494L155.306 48.6605L156.39 49.2518ZM156.39 44.3856L155.306 44.9769L155.313 44.9894L155.32 45.0017L156.39 44.3856ZM154.899 42.8345L154.279 43.9023L154.279 43.9023L154.899 42.8345ZM150.672 42.8345L151.292 43.9023L151.292 43.9023L150.672 42.8345ZM149.151 44.3856L148.081 43.7695L148.074 43.7819L148.067 43.7944L149.151 44.3856ZM149.151 49.2518L148.06 49.8295L148.07 49.8489L148.081 49.8679L149.151 49.2518ZM150.672 50.8029L151.292 49.7351L151.292 49.7351L150.672 50.8029ZM157.089 55H155.855V56.2347H157.089V55ZM157.089 51.6545L155.855 51.6313L155.855 51.6429V51.6545H157.089ZM157.181 46.7883L158.415 46.8114L158.416 46.7611L158.413 46.7108L157.181 46.7883ZM156.876 41.9525H155.642V41.9913L155.644 42.03L156.876 41.9525ZM156.876 32.433V31.1983H155.642V32.433H156.876ZM161.621 32.433H162.856V31.1983H161.621V32.433ZM161.621 55V56.2347H162.856V55H161.621ZM151.98 54.0086C150.63 54.0086 149.451 53.7087 148.414 53.1307L147.212 55.2878C148.649 56.0885 150.247 56.4781 151.98 56.4781V54.0086ZM148.428 53.1383C147.383 52.5387 146.554 51.7125 145.931 50.6391L143.795 51.8791C144.632 53.3199 145.77 54.4605 147.199 55.2802L148.428 53.1383ZM145.938 50.6521C145.351 49.611 145.033 48.3476 145.033 46.8187H142.564C142.564 48.6962 142.956 50.393 143.788 51.8661L145.938 50.6521ZM145.033 46.8187C145.033 45.2667 145.352 43.9939 145.938 42.9549L143.788 41.7409C142.955 43.2161 142.564 44.9238 142.564 46.8187H145.033ZM145.931 42.9679C146.552 41.8975 147.377 41.085 148.414 40.5067L147.212 38.3497C145.776 39.1501 144.633 40.2841 143.795 41.7279L145.931 42.9679ZM148.414 40.5067C149.451 39.9287 150.63 39.6289 151.98 39.6289V37.1594C150.247 37.1594 148.649 37.5489 147.212 38.3497L148.414 40.5067ZM151.98 39.6289C153.172 39.6289 154.155 39.8899 154.973 40.3708L156.225 38.2423C154.974 37.5066 153.545 37.1594 151.98 37.1594V39.6289ZM154.973 40.3708C155.761 40.8343 156.402 41.5499 156.88 42.5893L159.124 41.5591C158.465 40.1248 157.505 38.9953 156.225 38.2423L154.973 40.3708ZM156.88 42.5893C157.349 43.6119 157.619 45.0016 157.619 46.8187H160.088C160.088 44.7834 159.79 43.0101 159.124 41.5591L156.88 42.5893ZM157.619 46.8187C157.619 48.6168 157.359 50.0168 156.9 51.0703L159.164 52.0562C159.8 50.5955 160.088 48.8325 160.088 46.8187H157.619ZM156.903 51.0635C156.446 52.0955 155.817 52.8057 155.034 53.2666L156.286 55.3952C157.57 54.6396 158.523 53.5046 159.161 52.063L156.903 51.0635ZM155.025 53.2721C154.241 53.7425 153.244 54.0086 151.98 54.0086V56.4781C153.594 56.4781 155.052 56.1358 156.295 55.3897L155.025 53.2721ZM152.801 52.5851C153.776 52.5851 154.691 52.3516 155.519 51.8707L154.279 49.7351C153.851 49.9841 153.367 50.1156 152.801 50.1156V52.5851ZM155.519 51.8707C156.353 51.3867 157.006 50.7004 157.474 49.8431L155.306 48.6605C155.043 49.1414 154.703 49.4892 154.279 49.7351L155.519 51.8707ZM157.468 49.8541C157.973 48.9499 158.202 47.924 158.202 46.8187H155.733C155.733 47.5788 155.577 48.175 155.312 48.6495L157.468 49.8541ZM158.202 46.8187C158.202 45.6998 157.976 44.6652 157.46 43.7695L155.32 45.0017C155.574 45.4442 155.733 46.0317 155.733 46.8187H158.202ZM157.474 43.7944C157.006 42.937 156.353 42.2507 155.519 41.7667L154.279 43.9023C154.703 44.1482 155.043 44.496 155.306 44.9769L157.474 43.7944ZM155.519 41.7667C154.691 41.2858 153.776 41.0523 152.801 41.0523V43.5218C153.367 43.5218 153.851 43.6533 154.279 43.9023L155.519 41.7667ZM152.801 41.0523C151.812 41.0523 150.885 41.2829 150.052 41.7667L151.292 43.9023C151.716 43.6562 152.208 43.5218 152.801 43.5218V41.0523ZM150.052 41.7667C149.225 42.2471 148.567 42.9251 148.081 43.7695L150.221 45.0017C150.506 44.5079 150.862 44.1519 151.292 43.9023L150.052 41.7667ZM148.067 43.7944C147.582 44.6848 147.369 45.71 147.369 46.8187H149.839C149.839 46.0215 149.991 45.4247 150.235 44.9769L148.067 43.7944ZM147.369 46.8187C147.369 47.9136 147.584 48.9305 148.06 49.8295L150.243 48.6741C149.989 48.1944 149.839 47.5892 149.839 46.8187H147.369ZM148.081 49.8679C148.567 50.7123 149.225 51.3904 150.052 51.8707L151.292 49.7351C150.862 49.4855 150.506 49.1295 150.221 48.6357L148.081 49.8679ZM150.052 51.8707C150.885 52.3545 151.812 52.5851 152.801 52.5851V50.1156C152.208 50.1156 151.716 49.9812 151.292 49.7351L150.052 51.8707ZM158.324 55V51.6545H155.855V55H158.324ZM158.324 51.6776L158.415 46.8114L155.946 46.7652L155.855 51.6313L158.324 51.6776ZM158.413 46.7108L158.109 41.875L155.644 42.03L155.948 46.8658L158.413 46.7108ZM158.111 41.9525V32.433H155.642V41.9525H158.111ZM156.876 33.6678H161.621V31.1983H156.876V33.6678ZM160.386 32.433V55H162.856V32.433H160.386ZM161.621 53.7653H157.089V56.2347H161.621V53.7653ZM166.012 55H164.777V56.2347H166.012V55ZM166.012 38.6374V37.4027H164.777V38.6374H166.012ZM170.757 38.6374H171.991V37.4027H170.757V38.6374ZM170.757 55V56.2347H171.991V55H170.757ZM166.255 35.5961L165.417 36.5021L165.417 36.5021L166.255 35.5961ZM166.255 31.8248L167.094 32.7308L167.094 32.7308L166.255 31.8248ZM170.513 31.7943L169.693 32.7172L169.703 32.7258L169.713 32.7343L170.513 31.7943ZM170.513 35.5961L171.369 36.4861L171.37 36.4855L170.513 35.5961ZM167.247 55V38.6374H164.777V55H167.247ZM166.012 39.8722H170.757V37.4027H166.012V39.8722ZM169.522 38.6374V55H171.991V38.6374H169.522ZM170.757 53.7653H166.012V56.2347H170.757V53.7653ZM168.384 35.1217C167.768 35.1217 167.376 34.9505 167.094 34.69L165.417 36.5021C166.23 37.2555 167.257 37.5911 168.384 37.5911V35.1217ZM167.094 34.6901C166.801 34.4183 166.669 34.1188 166.669 33.7104H164.2C164.2 34.8024 164.615 35.76 165.417 36.5021L167.094 34.6901ZM166.669 33.7104C166.669 33.302 166.801 33.0025 167.094 32.7308L165.417 30.9187C164.615 31.6608 164.2 32.6184 164.2 33.7104H166.669ZM167.094 32.7308C167.376 32.4704 167.768 32.2992 168.384 32.2992V29.8297C167.257 29.8297 166.23 30.1654 165.417 30.9188L167.094 32.7308ZM168.384 32.2992C169.015 32.2992 169.413 32.4684 169.693 32.7172L171.334 30.8715C170.519 30.147 169.498 29.8297 168.384 29.8297V32.2992ZM169.713 32.7343C169.971 32.9547 170.1 33.2128 170.1 33.6192H172.569C172.569 32.5251 172.15 31.5667 171.314 30.8544L169.713 32.7343ZM170.1 33.6192C170.1 34.0896 169.952 34.4226 169.657 34.7066L171.37 36.4855C172.17 35.7152 172.569 34.7302 172.569 33.6192H170.1ZM169.658 34.706C169.409 34.9451 169.032 35.1217 168.384 35.1217V37.5911C169.521 37.5911 170.564 37.2608 171.369 36.4861L169.658 34.706Z" fill="black"/>
</g>
<circle cx="185.098" cy="46.1928" r="8.61722" stroke="#725DFF" stroke-width="3.04137"/>
<g filter="url(#filter1_d_74_122)">
<path d="M30.7263 55L40.2154 33.7104H45.0815L54.601 55H49.4307L41.6448 36.2043H43.5913L35.775 55H30.7263ZM35.4708 50.4379L36.7786 46.6971H47.7275L49.0657 50.4379H35.4708ZM56.8098 55V33.7104H67.2113C69.8877 33.7104 71.895 34.2173 73.2332 35.2311C74.5917 36.2449 75.2709 37.5831 75.2709 39.2457C75.2709 40.3609 74.9972 41.3341 74.4498 42.1654C73.9023 42.9764 73.1521 43.605 72.1992 44.0511C71.2462 44.4971 70.1513 44.7202 68.9145 44.7202L69.4923 43.4732C70.8305 43.4732 72.0167 43.6962 73.0507 44.1423C74.0848 44.5681 74.8857 45.2068 75.4534 46.0584C76.0414 46.91 76.3354 47.9542 76.3354 49.191C76.3354 51.0158 75.6156 52.4452 74.1761 53.4793C72.7365 54.4931 70.6177 55 67.8196 55H56.8098ZM61.7064 51.2895H67.4546C68.732 51.2895 69.6951 51.0868 70.3439 50.6813C71.013 50.2555 71.3476 49.5864 71.3476 48.6739C71.3476 47.7818 71.013 47.1229 70.3439 46.6971C69.6951 46.251 68.732 46.028 67.4546 46.028H61.3415V42.4391H66.603C67.7993 42.4391 68.7117 42.2364 69.3403 41.8309C69.9891 41.4051 70.3135 40.7664 70.3135 39.9148C70.3135 39.0835 69.9891 38.4651 69.3403 38.0596C68.7117 37.6338 67.7993 37.4209 66.603 37.4209H61.7064V51.2895Z" fill="#FFDF34"/>
<path d="M79.1228 48.3394V44.5377H87.7299V48.3394H79.1228Z" fill="black"/>
<path d="M98.7926 55.365C97.0895 55.365 95.4573 55.1419 93.896 54.6959C92.3348 54.2295 91.0777 53.6314 90.1247 52.9015L91.7975 49.191C92.7099 49.8398 93.7845 50.3771 95.0213 50.8029C96.2784 51.2084 97.5457 51.4112 98.823 51.4112C99.7963 51.4112 100.577 51.3199 101.165 51.1375C101.773 50.9347 102.219 50.661 102.503 50.3163C102.787 49.9716 102.929 49.5762 102.929 49.1302C102.929 48.5624 102.706 48.1164 102.26 47.792C101.814 47.4473 101.226 47.1735 100.496 46.9708C99.7659 46.7477 98.9548 46.545 98.0627 46.3625C97.1908 46.1597 96.3088 45.9164 95.4167 45.6326C94.5448 45.3487 93.7439 44.9838 93.014 44.5377C92.2841 44.0916 91.686 43.5036 91.2196 42.7737C90.7735 42.0438 90.5505 41.1111 90.5505 39.9756C90.5505 38.7591 90.8749 37.6541 91.5237 36.6605C92.1928 35.6467 93.1864 34.8459 94.5043 34.2579C95.8425 33.6496 97.5152 33.3454 99.5226 33.3454C100.861 33.3454 102.179 33.5076 103.476 33.8321C104.774 34.1362 105.92 34.6025 106.913 35.2311L105.392 38.972C104.399 38.4043 103.405 37.9886 102.412 37.725C101.418 37.4412 100.445 37.2992 99.4921 37.2992C98.5392 37.2992 97.7586 37.4107 97.1503 37.6338C96.542 37.8568 96.1061 38.1508 95.8425 38.5158C95.5789 38.8605 95.4471 39.266 95.4471 39.7323C95.4471 40.2798 95.6701 40.7258 96.1162 41.0705C96.5623 41.3949 97.1503 41.6585 97.8802 41.8613C98.6101 42.064 99.411 42.2668 100.283 42.4696C101.175 42.6723 102.057 42.9055 102.929 43.1691C103.821 43.4327 104.632 43.7875 105.362 44.2335C106.092 44.6796 106.68 45.2676 107.126 45.9975C107.592 46.7275 107.825 47.65 107.825 48.7652C107.825 49.9615 107.491 51.0564 106.822 52.0499C106.153 53.0434 105.149 53.8443 103.811 54.4526C102.493 55.0608 100.82 55.365 98.7926 55.365ZM117.549 55.2433C115.622 55.2433 114.122 54.7567 113.047 53.7835C111.973 52.7899 111.435 51.3199 111.435 49.3735V35.0182H116.18V49.3126C116.18 50.002 116.362 50.5393 116.727 50.9246C117.092 51.2895 117.589 51.472 118.218 51.472C118.968 51.472 119.607 51.2693 120.134 50.8637L121.411 54.2092C120.925 54.5539 120.337 54.8175 119.647 55C118.978 55.1622 118.279 55.2433 117.549 55.2433ZM108.911 42.652V39.0024H120.255V42.652H108.911ZM130.978 55.2433C129.62 55.2433 128.403 54.9797 127.329 54.4526C126.274 53.9254 125.453 53.1245 124.865 52.0499C124.277 50.955 123.983 49.5661 123.983 47.8832V38.6374H128.728V47.1837C128.728 48.5422 129.012 49.5458 129.579 50.1946C130.167 50.8232 130.989 51.1375 132.043 51.1375C132.773 51.1375 133.422 50.9854 133.989 50.6813C134.557 50.3568 135.003 49.8702 135.328 49.2214C135.652 48.5523 135.814 47.721 135.814 46.7275V38.6374H140.559V55H136.057V50.4988L136.879 51.8066C136.331 52.942 135.52 53.8037 134.446 54.3917C133.391 54.9594 132.236 55.2433 130.978 55.2433ZM151.98 55.2433C150.439 55.2433 149.05 54.8986 147.813 54.2092C146.576 53.4996 145.593 52.5162 144.863 51.2591C144.153 50.002 143.798 48.5219 143.798 46.8187C143.798 45.0953 144.153 43.605 144.863 42.3479C145.593 41.0908 146.576 40.1176 147.813 39.4282C149.05 38.7388 150.439 38.3941 151.98 38.3941C153.359 38.3941 154.565 38.6983 155.599 39.3065C156.633 39.9148 157.434 40.8374 158.002 42.0742C158.569 43.311 158.853 44.8925 158.853 46.8187C158.853 48.7246 158.58 50.3062 158.032 51.5633C157.485 52.8001 156.694 53.7226 155.66 54.3309C154.646 54.9392 153.419 55.2433 151.98 55.2433ZM152.801 51.3504C153.571 51.3504 154.271 51.1679 154.899 50.8029C155.528 50.4379 156.025 49.9209 156.39 49.2518C156.775 48.5624 156.968 47.7514 156.968 46.8187C156.968 45.8658 156.775 45.0547 156.39 44.3856C156.025 43.7165 155.528 43.1995 154.899 42.8345C154.271 42.4696 153.571 42.2871 152.801 42.2871C152.01 42.2871 151.301 42.4696 150.672 42.8345C150.043 43.1995 149.537 43.7165 149.151 44.3856C148.786 45.0547 148.604 45.8658 148.604 46.8187C148.604 47.7514 148.786 48.5624 149.151 49.2518C149.537 49.9209 150.043 50.4379 150.672 50.8029C151.301 51.1679 152.01 51.3504 152.801 51.3504ZM157.089 55V51.6545L157.181 46.7883L156.876 41.9525V32.433H161.621V55H157.089ZM166.012 55V38.6374H170.757V55H166.012ZM168.384 36.3564C167.513 36.3564 166.803 36.103 166.255 35.5961C165.708 35.0892 165.434 34.4606 165.434 33.7104C165.434 32.9602 165.708 32.3317 166.255 31.8248C166.803 31.3179 167.513 31.0644 168.384 31.0644C169.256 31.0644 169.966 31.3077 170.513 31.7943C171.061 32.2607 171.335 32.869 171.335 33.6192C171.335 34.4099 171.061 35.0689 170.513 35.5961C169.986 36.103 169.277 36.3564 168.384 36.3564Z" fill="#F8CD09"/>
<path d="M30.7263 55L29.5985 54.4973L28.8241 56.2347H30.7263V55ZM40.2154 33.7104V32.4757H39.4139L39.0876 33.2077L40.2154 33.7104ZM45.0815 33.7104L46.2087 33.2064L45.882 32.4757H45.0815V33.7104ZM54.601 55V56.2347H56.5057L55.7282 54.496L54.601 55ZM49.4307 55L48.29 55.4725L48.6057 56.2347H49.4307V55ZM41.6448 36.2043V34.9696H39.7968L40.5041 36.6769L41.6448 36.2043ZM43.5913 36.2043L44.7314 36.6784L45.442 34.9696H43.5913V36.2043ZM35.775 55V56.2347H36.5987L36.915 55.4741L35.775 55ZM35.4708 50.4379L34.3052 50.0305L33.7311 51.6727H35.4708V50.4379ZM36.7786 46.6971V45.4623H35.9022L35.613 46.2896L36.7786 46.6971ZM47.7275 46.6971L48.8901 46.2812L48.5972 45.4623H47.7275V46.6971ZM49.0657 50.4379V51.6727H50.8188L50.2283 50.0221L49.0657 50.4379ZM31.8541 55.5027L41.3431 34.2131L39.0876 33.2077L29.5985 54.4973L31.8541 55.5027ZM40.2154 34.9452H45.0815V32.4757H40.2154V34.9452ZM43.9544 34.2144L53.4738 55.504L55.7282 54.496L46.2087 33.2064L43.9544 34.2144ZM54.601 53.7653H49.4307V56.2347H54.601V53.7653ZM50.5714 54.5275L42.7855 35.7318L40.5041 36.6769L48.29 55.4725L50.5714 54.5275ZM41.6448 37.4391H43.5913V34.9696H41.6448V37.4391ZM42.4512 35.7302L34.6349 54.5259L36.915 55.4741L44.7314 36.6784L42.4512 35.7302ZM35.775 53.7653H30.7263V56.2347H35.775V53.7653ZM36.6364 50.8454L37.9442 47.1045L35.613 46.2896L34.3052 50.0305L36.6364 50.8454ZM36.7786 47.9318H47.7275V45.4623H36.7786V47.9318ZM46.5649 47.1129L47.9031 50.8538L50.2283 50.0221L48.8901 46.2812L46.5649 47.1129ZM49.0657 49.2032H35.4708V51.6727H49.0657V49.2032ZM56.8098 55H55.5751V56.2347H56.8098V55ZM56.8098 33.7104V32.4757H55.5751V33.7104H56.8098ZM73.2332 35.2311L72.4876 36.2153L72.4947 36.2207L73.2332 35.2311ZM74.4498 42.1654L75.4733 42.8563L75.481 42.8445L74.4498 42.1654ZM72.1992 44.0511L72.7226 45.1694L72.7226 45.1694L72.1992 44.0511ZM68.9145 44.7202L67.7942 44.201L66.9814 45.9549H68.9145V44.7202ZM69.4923 43.4732V42.2385H68.7037L68.372 42.954L69.4923 43.4732ZM73.0507 44.1423L72.5617 45.2761L72.5711 45.2801L72.5806 45.284L73.0507 44.1423ZM75.4534 46.0584L74.4261 46.7433L74.4316 46.7517L74.4374 46.7599L75.4534 46.0584ZM74.1761 53.4793L74.887 54.4889L74.8964 54.4822L74.1761 53.4793ZM61.7064 51.2895H60.4717V52.5243H61.7064V51.2895ZM70.3439 50.6813L70.9984 51.7283L71.0068 51.723L70.3439 50.6813ZM70.3439 46.6971L69.6444 47.7145L69.6625 47.727L69.681 47.7388L70.3439 46.6971ZM61.3415 46.028H60.1067V47.2627H61.3415V46.028ZM61.3415 42.4391V41.2044H60.1067V42.4391H61.3415ZM69.3403 41.8309L70.0097 42.8684L70.0177 42.8632L69.3403 41.8309ZM69.3403 38.0596L68.6478 39.0818L68.6666 39.0946L68.6859 39.1066L69.3403 38.0596ZM61.7064 37.4209V36.1861H60.4717V37.4209H61.7064ZM58.0446 55V33.7104H55.5751V55H58.0446ZM56.8098 34.9452H67.2113V32.4757H56.8098V34.9452ZM67.2113 34.9452C69.767 34.9452 71.4581 35.4353 72.4876 36.2153L73.9788 34.2469C72.332 32.9993 70.0084 32.4757 67.2113 32.4757V34.9452ZM72.4947 36.2207C73.5481 37.0067 74.0362 37.9817 74.0362 39.2457H76.5057C76.5057 37.1845 75.6353 35.483 73.9717 34.2415L72.4947 36.2207ZM74.0362 39.2457C74.0362 40.1495 73.8176 40.8803 73.4186 41.4863L75.481 42.8445C76.1768 41.7879 76.5057 40.5722 76.5057 39.2457H74.0362ZM73.4264 41.4746C73.0133 42.0866 72.4422 42.574 71.6757 42.9328L72.7226 45.1694C73.862 44.636 74.7914 43.8663 75.4732 42.8562L73.4264 41.4746ZM71.6757 42.9328C70.9129 43.2898 70.0019 43.4854 68.9145 43.4854V45.9549C70.3007 45.9549 71.5795 45.7044 72.7226 45.1694L71.6757 42.9328ZM70.0348 45.2393L70.6126 43.9924L68.372 42.954L67.7942 44.201L70.0348 45.2393ZM69.4923 44.708C70.6935 44.708 71.7083 44.9079 72.5617 45.2761L73.5398 43.0086C72.3251 42.4845 70.9676 42.2385 69.4923 42.2385V44.708ZM72.5806 45.284C73.4096 45.6254 74.0071 46.1149 74.4261 46.7433L76.4808 45.3735C75.7643 44.2987 74.76 43.5108 73.5209 43.0006L72.5806 45.284ZM74.4374 46.7599C74.857 47.3677 75.1007 48.1549 75.1007 49.191H77.5702C77.5702 47.7534 77.2258 46.4522 76.4695 45.3568L74.4374 46.7599ZM75.1007 49.191C75.1007 50.6321 74.5612 51.6824 73.4557 52.4765L74.8964 54.4822C76.67 53.2081 77.5702 51.3995 77.5702 49.191H75.1007ZM73.4651 52.4698C72.3236 53.2737 70.5014 53.7653 67.8196 53.7653V56.2347C70.7339 56.2347 73.1493 55.7126 74.887 54.4888L73.4651 52.4698ZM67.8196 53.7653H56.8098V56.2347H67.8196V53.7653ZM61.7064 52.5243H67.4546V50.0548H61.7064V52.5243ZM67.4546 52.5243C68.8252 52.5243 70.0621 52.3134 70.9983 51.7283L69.6895 49.6342C69.3281 49.8601 68.6388 50.0548 67.4546 50.0548V52.5243ZM71.0068 51.723C72.0908 51.0332 72.5823 49.9339 72.5823 48.6739H70.1128C70.1128 49.2388 69.9353 49.4777 69.681 49.6395L71.0068 51.723ZM72.5823 48.6739C72.5823 47.422 72.0817 46.3393 71.0068 45.6554L69.681 47.7388C69.9444 47.9064 70.1128 48.1416 70.1128 48.6739H72.5823ZM71.0434 45.6796C70.0967 45.0287 68.84 44.7932 67.4546 44.7932V47.2627C68.624 47.2627 69.2935 47.4733 69.6444 47.7145L71.0434 45.6796ZM67.4546 44.7932H61.3415V47.2627H67.4546V44.7932ZM62.5762 46.028V42.4391H60.1067V46.028H62.5762ZM61.3415 43.6739H66.603V41.2044H61.3415V43.6739ZM66.603 43.6739C67.9071 43.6739 69.0951 43.4584 70.0097 42.8684L68.6709 40.7933C68.3283 41.0143 67.6916 41.2044 66.603 41.2044V43.6739ZM70.0177 42.8632C71.0526 42.184 71.5483 41.1345 71.5483 39.9148H69.0788C69.0788 40.3983 68.9256 40.6261 68.6628 40.7986L70.0177 42.8632ZM71.5483 39.9148C71.5483 38.7019 71.0404 37.6661 69.9947 37.0125L68.6859 39.1066C68.9378 39.2641 69.0788 39.4651 69.0788 39.9148H71.5483ZM70.0328 37.0373C69.1132 36.4143 67.9152 36.1861 66.603 36.1861V38.6556C67.6834 38.6556 68.3103 38.8532 68.6478 39.0818L70.0328 37.0373ZM66.603 36.1861H61.7064V38.6556H66.603V36.1861ZM60.4717 37.4209V51.2895H62.9412V37.4209H60.4717ZM79.1228 48.3394H77.8881V49.5741H79.1228V48.3394ZM79.1228 44.5377V43.3029H77.8881V44.5377H79.1228ZM87.7299 44.5377H88.9646V43.3029H87.7299V44.5377ZM87.7299 48.3394V49.5741H88.9646V48.3394H87.7299ZM80.3575 48.3394V44.5377H77.8881V48.3394H80.3575ZM79.1228 45.7724H87.7299V43.3029H79.1228V45.7724ZM86.4951 44.5377V48.3394H88.9646V44.5377H86.4951ZM87.7299 47.1047H79.1228V49.5741H87.7299V47.1047ZM93.896 54.6959L93.5426 55.879L93.5497 55.8811L93.5568 55.8831L93.896 54.6959ZM90.1247 52.9015L88.9991 52.394L88.5967 53.2864L89.3739 53.8817L90.1247 52.9015ZM91.7975 49.191L92.513 48.1847L91.2891 47.3143L90.6718 48.6835L91.7975 49.191ZM95.0213 50.8029L94.6194 51.9704L94.6308 51.9743L94.6423 51.978L95.0213 50.8029ZM101.165 51.1375L101.531 52.3167L101.543 52.3129L101.555 52.3088L101.165 51.1375ZM102.503 50.3163L101.55 49.5314L101.55 49.5314L102.503 50.3163ZM102.26 47.792L101.505 48.769L101.519 48.78L101.534 48.7905L102.26 47.792ZM100.496 46.9708L100.135 48.1516L100.15 48.1563L100.165 48.1605L100.496 46.9708ZM98.0627 46.3625L97.783 47.5652L97.7991 47.5689L97.8153 47.5722L98.0627 46.3625ZM95.4167 45.6326L95.0344 46.8067L95.0423 46.8092L95.4167 45.6326ZM93.014 44.5377L92.3702 45.5913L92.3702 45.5913L93.014 44.5377ZM91.2196 42.7737L90.166 43.4175L90.1725 43.4281L90.1791 43.4385L91.2196 42.7737ZM91.5237 36.6605L90.4932 35.9804L90.4899 35.9854L91.5237 36.6605ZM94.5043 34.2579L95.0074 35.3855L95.0152 35.3819L94.5043 34.2579ZM103.476 33.8321L103.177 35.0299L103.186 35.0321L103.195 35.0342L103.476 33.8321ZM106.913 35.2311L108.057 35.6961L108.446 34.7396L107.573 34.1876L106.913 35.2311ZM105.392 38.972L104.78 40.044L106.005 40.7441L106.536 39.437L105.392 38.972ZM102.412 37.725L102.073 38.9123L102.084 38.9155L102.095 38.9185L102.412 37.725ZM97.1503 37.6338L96.7252 36.4745L96.7252 36.4745L97.1503 37.6338ZM95.8425 38.5158L96.8233 39.2658L96.8336 39.2524L96.8435 39.2387L95.8425 38.5158ZM96.1162 41.0705L95.3612 42.0476L95.3754 42.0585L95.39 42.0691L96.1162 41.0705ZM97.8802 41.8613L97.5497 43.051L97.5497 43.051L97.8802 41.8613ZM100.283 42.4696L100.003 43.6722L100.009 43.6736L100.283 42.4696ZM102.929 43.1691L102.572 44.351L102.579 44.3532L102.929 43.1691ZM105.362 44.2335L106.006 43.18L106.006 43.18L105.362 44.2335ZM107.126 45.9975L106.072 46.6414L106.079 46.6519L106.085 46.6623L107.126 45.9975ZM106.822 52.0499L107.846 52.7396L107.846 52.7396L106.822 52.0499ZM103.811 54.4526L103.3 53.3285L103.293 53.3315L103.811 54.4526ZM98.7926 54.1302C97.1986 54.1302 95.6809 53.9217 94.2352 53.5086L93.5568 55.8831C95.2336 56.3622 96.9804 56.5997 98.7926 56.5997V54.1302ZM94.2494 53.5128C92.7838 53.075 91.6752 52.5338 90.8755 51.9212L89.3739 53.8817C90.4801 54.729 91.8857 55.384 93.5426 55.879L94.2494 53.5128ZM91.2504 53.4089L92.9231 49.6984L90.6718 48.6835L88.9991 52.394L91.2504 53.4089ZM91.0819 50.1972C92.1052 50.9249 93.2892 51.5125 94.6194 51.9704L95.4232 49.6354C94.2798 49.2418 93.3146 48.7547 92.513 48.1847L91.0819 50.1972ZM94.6423 51.978C96.0176 52.4217 97.4126 52.6459 98.823 52.6459V50.1764C97.6787 50.1764 96.5392 49.9952 95.4004 49.6278L94.6423 51.978ZM98.823 52.6459C99.8572 52.6459 100.776 52.5509 101.531 52.3167L100.799 49.9582C100.378 50.089 99.7354 50.1764 98.823 50.1764V52.6459ZM101.555 52.3088C102.293 52.063 102.974 51.6869 103.456 51.1012L101.55 49.5314C101.465 49.635 101.254 49.8064 100.774 49.9661L101.555 52.3088ZM103.456 51.1012C103.922 50.5357 104.164 49.8629 104.164 49.1302H101.694C101.694 49.2895 101.652 49.4075 101.55 49.5314L103.456 51.1012ZM104.164 49.1302C104.164 48.1811 103.762 47.3581 102.986 46.7934L101.534 48.7905C101.649 48.8747 101.694 48.9438 101.694 49.1302H104.164ZM103.015 46.8149C102.407 46.3452 101.66 46.0128 100.826 45.7811L100.165 48.1605C100.791 48.3343 101.22 48.5493 101.505 48.769L103.015 46.8149ZM100.857 45.7899C100.083 45.5536 99.2335 45.3417 98.3101 45.1528L97.8153 47.5722C98.6762 47.7483 99.4487 47.9419 100.135 48.1516L100.857 45.7899ZM98.3424 45.1599C97.5038 44.9648 96.6534 44.7303 95.7911 44.456L95.0423 46.8092C95.9642 47.1025 96.8778 47.3547 97.783 47.5652L98.3424 45.1599ZM95.799 44.4585C95.0122 44.2023 94.2999 43.8765 93.6579 43.4841L92.3702 45.5913C93.188 46.091 94.0775 46.4951 95.0344 46.8067L95.799 44.4585ZM93.6579 43.4841C93.09 43.1371 92.6268 42.6829 92.2601 42.1089L90.1791 43.4385C90.7451 44.3244 91.4781 45.0461 92.3702 45.5913L93.6579 43.4841ZM92.2732 42.1298C91.9784 41.6474 91.7853 40.9563 91.7853 39.9756H89.3158C89.3158 41.2659 89.5687 42.4401 90.166 43.4175L92.2732 42.1298ZM91.7853 39.9756C91.7853 38.9925 92.0433 38.1231 92.5576 37.3357L90.4899 35.9854C89.7065 37.185 89.3158 38.5257 89.3158 39.9756H91.7853ZM92.5543 37.3407C93.0711 36.5576 93.8633 35.8959 95.0074 35.3855L94.0012 33.1302C92.5094 33.7958 91.3146 34.7359 90.4932 35.9804L92.5543 37.3407ZM95.0152 35.3819C96.1456 34.8681 97.6308 34.5802 99.5226 34.5802V32.1107C97.3997 32.1107 95.5394 32.4311 93.9933 33.1338L95.0152 35.3819ZM99.5226 34.5802C100.76 34.5802 101.977 34.73 103.177 35.0299L103.776 32.6342C102.38 32.2853 100.962 32.1107 99.5226 32.1107V34.5802ZM103.195 35.0342C104.376 35.3111 105.39 35.7288 106.253 36.2745L107.573 34.1876C106.449 33.4763 105.172 32.9613 103.758 32.6299L103.195 35.0342ZM105.769 34.7661L104.249 38.507L106.536 39.437L108.057 35.6961L105.769 34.7661ZM106.005 37.8999C104.929 37.285 103.836 36.8255 102.728 36.5316L102.095 38.9185C102.974 39.1517 103.869 39.5235 104.78 40.044L106.005 37.8999ZM102.751 36.5378C101.656 36.225 100.569 36.0645 99.4921 36.0645V38.534C100.321 38.534 101.18 38.6573 102.073 38.9123L102.751 36.5378ZM99.4921 36.0645C98.4561 36.0645 97.5177 36.1839 96.7252 36.4745L97.5753 38.793C97.9994 38.6375 98.6223 38.534 99.4921 38.534V36.0645ZM96.7252 36.4745C95.9827 36.7468 95.2997 37.1584 94.8415 37.7928L96.8435 39.2387C96.9124 39.1432 97.1014 38.9668 97.5753 38.793L96.7252 36.4745ZM94.8617 37.7657C94.4208 38.3423 94.2124 39.0164 94.2124 39.7323H96.6819C96.6819 39.5155 96.7371 39.3786 96.8233 39.2658L94.8617 37.7657ZM94.2124 39.7323C94.2124 40.6753 94.6231 41.4772 95.3612 42.0476L96.8712 40.0935C96.7172 39.9745 96.6819 39.8843 96.6819 39.7323H94.2124ZM95.39 42.0691C95.9909 42.5062 96.727 42.8224 97.5497 43.051L98.2107 40.6716C97.5736 40.4946 97.1336 40.2837 96.8425 40.0719L95.39 42.0691ZM97.5497 43.051C98.2992 43.2592 99.1173 43.4662 100.003 43.6722L100.563 41.2669C99.7048 41.0674 98.9211 40.8689 98.2107 40.6716L97.5497 43.051ZM100.009 43.6736C100.873 43.87 101.727 44.0958 102.572 44.351L103.286 41.9872C102.387 41.7152 101.477 41.4746 100.557 41.2655L100.009 43.6736ZM102.579 44.3532C103.377 44.5889 104.088 44.9019 104.718 45.2871L106.006 43.18C105.176 42.6731 104.265 42.2764 103.279 41.9849L102.579 44.3532ZM104.718 45.2871C105.281 45.6311 105.728 46.0786 106.072 46.6414L108.18 45.3537C107.631 44.4566 106.903 43.7282 106.006 43.18L104.718 45.2871ZM106.085 46.6623C106.393 47.144 106.591 47.8187 106.591 48.7652H109.06C109.06 47.4813 108.791 46.3109 108.166 45.3328L106.085 46.6623ZM106.591 48.7652C106.591 49.7154 106.33 50.5702 105.798 51.3601L107.846 52.7396C108.652 51.5425 109.06 50.2075 109.06 48.7652H106.591ZM105.798 51.3601C105.282 52.1253 104.477 52.7933 103.3 53.3285L104.322 55.5766C105.821 54.8953 107.023 53.9614 107.846 52.7396L105.798 51.3601ZM103.293 53.3315C102.189 53.8413 100.708 54.1302 98.7926 54.1302V56.5997C100.933 56.5997 102.797 56.2803 104.328 55.5737L103.293 53.3315ZM113.047 53.7835L112.209 54.6901L112.219 54.6986L113.047 53.7835ZM111.435 35.0182V33.7835H110.201V35.0182H111.435ZM116.18 35.0182H117.415V33.7835H116.18V35.0182ZM116.727 50.9246L115.831 51.7738L115.843 51.7859L115.854 51.7977L116.727 50.9246ZM120.134 50.8637L121.287 50.4233L120.696 48.8737L119.381 49.885L120.134 50.8637ZM121.411 54.2092L122.125 55.2168L122.906 54.6634L122.565 53.7688L121.411 54.2092ZM119.647 55L119.938 56.2L119.951 56.1969L119.963 56.1936L119.647 55ZM108.911 42.652H107.676V43.8868H108.911V42.652ZM108.911 39.0024V37.7676H107.676V39.0024H108.911ZM120.255 39.0024H121.49V37.7676H120.255V39.0024ZM120.255 42.652V43.8868H121.49V42.652H120.255ZM117.549 54.0086C115.826 54.0086 114.658 53.576 113.876 52.8683L112.219 54.6986C113.586 55.9373 115.419 56.4781 117.549 56.4781V54.0086ZM113.886 52.8768C113.14 52.1871 112.67 51.0946 112.67 49.3735H110.201C110.201 51.5453 110.806 53.3928 112.209 54.6901L113.886 52.8768ZM112.67 49.3735V35.0182H110.201V49.3735H112.67ZM111.435 36.2529H116.18V33.7835H111.435V36.2529ZM114.945 35.0182V49.3126H117.415V35.0182H114.945ZM114.945 49.3126C114.945 50.2202 115.19 51.0969 115.831 51.7738L117.624 50.0754C117.535 49.9818 117.415 49.7838 117.415 49.3126H114.945ZM115.854 51.7977C116.5 52.4429 117.338 52.7068 118.218 52.7068V50.2373C117.841 50.2373 117.685 50.1362 117.601 50.0515L115.854 51.7977ZM118.218 52.7068C119.204 52.7068 120.116 52.435 120.887 51.8424L119.381 49.885C119.097 50.1035 118.732 50.2373 118.218 50.2373V52.7068ZM118.98 51.3042L120.258 54.6497L122.565 53.7688L121.287 50.4233L118.98 51.3042ZM120.697 53.2017C120.352 53.4462 119.905 53.6544 119.331 53.8064L119.963 56.1936C120.768 55.9806 121.497 55.6617 122.125 55.2168L120.697 53.2017ZM119.356 53.8C118.788 53.9378 118.186 54.0086 117.549 54.0086V56.4781C118.371 56.4781 119.168 56.3866 119.938 56.2L119.356 53.8ZM110.146 42.652V39.0024H107.676V42.652H110.146ZM108.911 40.2371H120.255V37.7676H108.911V40.2371ZM119.021 39.0024V42.652H121.49V39.0024H119.021ZM120.255 41.4173H108.911V43.8868H120.255V41.4173ZM127.329 54.4526L126.777 55.557L126.785 55.5611L127.329 54.4526ZM124.865 52.0499L123.777 52.6341L123.782 52.6426L124.865 52.0499ZM123.983 38.6374V37.4027H122.749V38.6374H123.983ZM128.728 38.6374H129.963V37.4027H128.728V38.6374ZM129.579 50.1946L128.65 51.0077L128.664 51.0232L128.678 51.0382L129.579 50.1946ZM133.989 50.6813L134.572 51.7697L134.587 51.7617L134.602 51.7533L133.989 50.6813ZM135.328 49.2214L136.432 49.7736L136.435 49.7669L136.439 49.7601L135.328 49.2214ZM135.814 38.6374V37.4027H134.579V38.6374H135.814ZM140.559 38.6374H141.793V37.4027H140.559V38.6374ZM140.559 55V56.2347H141.793V55H140.559ZM136.057 55H134.823V56.2347H136.057V55ZM136.057 50.4988L137.103 49.8422L134.823 46.2104V50.4988H136.057ZM136.879 51.8066L137.991 52.3428L138.287 51.728L137.924 51.15L136.879 51.8066ZM134.446 54.3917L135.031 55.4789L135.038 55.4749L134.446 54.3917ZM130.978 54.0086C129.783 54.0086 128.756 53.7776 127.873 53.344L126.785 55.5611C128.05 56.1819 129.457 56.4781 130.978 56.4781V54.0086ZM127.881 53.3482C127.061 52.9381 126.421 52.3203 125.948 51.4572L123.782 52.6426C124.486 53.9287 125.488 54.9127 126.777 55.5569L127.881 53.3482ZM125.953 51.4657C125.49 50.6027 125.218 49.4312 125.218 47.8832H122.749C122.749 49.7009 123.065 51.3073 123.777 52.6341L125.953 51.4657ZM125.218 47.8832V38.6374H122.749V47.8832H125.218ZM123.983 39.8722H128.728V37.4027H123.983V39.8722ZM127.493 38.6374V47.1837H129.963V38.6374H127.493ZM127.493 47.1837C127.493 48.6776 127.799 50.0354 128.65 51.0077L130.509 49.3815C130.224 49.0562 129.963 48.4067 129.963 47.1837H127.493ZM128.678 51.0382C129.55 51.9708 130.729 52.3722 132.043 52.3722V49.9027C131.248 49.9027 130.785 49.6756 130.481 49.3511L128.678 51.0382ZM132.043 52.3722C132.949 52.3722 133.803 52.182 134.572 51.7697L133.406 49.5929C133.041 49.7887 132.597 49.9027 132.043 49.9027V52.3722ZM134.602 51.7533C135.404 51.2949 136.011 50.6157 136.432 49.7736L134.223 48.6692C133.995 49.1248 133.71 49.4188 133.377 49.6092L134.602 51.7533ZM136.439 49.7601C136.867 48.8765 137.049 47.8478 137.049 46.7275H134.579C134.579 47.5942 134.437 48.2281 134.217 48.6827L136.439 49.7601ZM137.049 46.7275V38.6374H134.579V46.7275H137.049ZM135.814 39.8722H140.559V37.4027H135.814V39.8722ZM139.324 38.6374V55H141.793V38.6374H139.324ZM140.559 53.7653H136.057V56.2347H140.559V53.7653ZM137.292 55V50.4988H134.823V55H137.292ZM135.012 51.1554L135.833 52.4632L137.924 51.15L137.103 49.8422L135.012 51.1554ZM135.766 51.2703C135.327 52.1809 134.695 52.848 133.853 53.3085L135.038 55.4749C136.346 54.7595 137.335 53.7031 137.991 52.3428L135.766 51.2703ZM133.86 53.3046C132.995 53.7705 132.042 54.0086 130.978 54.0086V56.4781C132.429 56.4781 133.788 56.1484 135.031 55.4789L133.86 53.3046ZM147.813 54.2092L147.199 55.2802L147.205 55.284L147.212 55.2878L147.813 54.2092ZM144.863 51.2591L143.788 51.8661L143.791 51.8726L143.795 51.8791L144.863 51.2591ZM144.863 42.3479L143.795 41.7279L143.791 41.7344L143.788 41.7409L144.863 42.3479ZM147.813 39.4282L147.212 38.3497L147.212 38.3497L147.813 39.4282ZM155.599 39.3065L156.225 38.2423L156.225 38.2423L155.599 39.3065ZM158.002 42.0742L159.124 41.5591L159.124 41.5591L158.002 42.0742ZM158.032 51.5633L159.161 52.063L159.164 52.0562L158.032 51.5633ZM155.66 54.3309L155.034 53.2666L155.025 53.2721L155.66 54.3309ZM154.899 50.8029L154.279 49.7351L154.279 49.7351L154.899 50.8029ZM156.39 49.2518L155.312 48.6494L155.306 48.6605L156.39 49.2518ZM156.39 44.3856L155.306 44.9769L155.313 44.9894L155.32 45.0017L156.39 44.3856ZM154.899 42.8345L154.279 43.9023L154.279 43.9023L154.899 42.8345ZM150.672 42.8345L151.292 43.9023L151.292 43.9023L150.672 42.8345ZM149.151 44.3856L148.081 43.7695L148.074 43.7819L148.067 43.7944L149.151 44.3856ZM149.151 49.2518L148.06 49.8295L148.07 49.8489L148.081 49.8679L149.151 49.2518ZM150.672 50.8029L151.292 49.7351L151.292 49.7351L150.672 50.8029ZM157.089 55H155.855V56.2347H157.089V55ZM157.089 51.6545L155.855 51.6313L155.855 51.6429V51.6545H157.089ZM157.181 46.7883L158.415 46.8114L158.416 46.7611L158.413 46.7108L157.181 46.7883ZM156.876 41.9525H155.642V41.9913L155.644 42.03L156.876 41.9525ZM156.876 32.433V31.1983H155.642V32.433H156.876ZM161.621 32.433H162.856V31.1983H161.621V32.433ZM161.621 55V56.2347H162.856V55H161.621ZM151.98 54.0086C150.63 54.0086 149.451 53.7087 148.414 53.1307L147.212 55.2878C148.649 56.0885 150.247 56.4781 151.98 56.4781V54.0086ZM148.428 53.1383C147.383 52.5387 146.554 51.7125 145.931 50.6391L143.795 51.8791C144.632 53.3199 145.77 54.4605 147.199 55.2802L148.428 53.1383ZM145.938 50.6521C145.351 49.611 145.033 48.3476 145.033 46.8187H142.564C142.564 48.6962 142.956 50.393 143.788 51.8661L145.938 50.6521ZM145.033 46.8187C145.033 45.2667 145.352 43.9939 145.938 42.9549L143.788 41.7409C142.955 43.2161 142.564 44.9238 142.564 46.8187H145.033ZM145.931 42.9679C146.552 41.8975 147.377 41.085 148.414 40.5067L147.212 38.3497C145.776 39.1501 144.633 40.2841 143.795 41.7279L145.931 42.9679ZM148.414 40.5067C149.451 39.9287 150.63 39.6289 151.98 39.6289V37.1594C150.247 37.1594 148.649 37.5489 147.212 38.3497L148.414 40.5067ZM151.98 39.6289C153.172 39.6289 154.155 39.8899 154.973 40.3708L156.225 38.2423C154.974 37.5066 153.545 37.1594 151.98 37.1594V39.6289ZM154.973 40.3708C155.761 40.8343 156.402 41.5499 156.88 42.5893L159.124 41.5591C158.465 40.1248 157.505 38.9953 156.225 38.2423L154.973 40.3708ZM156.88 42.5893C157.349 43.6119 157.619 45.0016 157.619 46.8187H160.088C160.088 44.7834 159.79 43.0101 159.124 41.5591L156.88 42.5893ZM157.619 46.8187C157.619 48.6168 157.359 50.0168 156.9 51.0703L159.164 52.0562C159.8 50.5955 160.088 48.8325 160.088 46.8187H157.619ZM156.903 51.0635C156.446 52.0955 155.817 52.8057 155.034 53.2666L156.286 55.3952C157.57 54.6396 158.523 53.5046 159.161 52.063L156.903 51.0635ZM155.025 53.2721C154.241 53.7425 153.244 54.0086 151.98 54.0086V56.4781C153.594 56.4781 155.052 56.1358 156.295 55.3897L155.025 53.2721ZM152.801 52.5851C153.776 52.5851 154.691 52.3516 155.519 51.8707L154.279 49.7351C153.851 49.9841 153.367 50.1156 152.801 50.1156V52.5851ZM155.519 51.8707C156.353 51.3867 157.006 50.7004 157.474 49.8431L155.306 48.6605C155.043 49.1414 154.703 49.4892 154.279 49.7351L155.519 51.8707ZM157.468 49.8541C157.973 48.9499 158.202 47.924 158.202 46.8187H155.733C155.733 47.5788 155.577 48.175 155.312 48.6495L157.468 49.8541ZM158.202 46.8187C158.202 45.6998 157.976 44.6652 157.46 43.7695L155.32 45.0017C155.574 45.4442 155.733 46.0317 155.733 46.8187H158.202ZM157.474 43.7944C157.006 42.937 156.353 42.2507 155.519 41.7667L154.279 43.9023C154.703 44.1482 155.043 44.496 155.306 44.9769L157.474 43.7944ZM155.519 41.7667C154.691 41.2858 153.776 41.0523 152.801 41.0523V43.5218C153.367 43.5218 153.851 43.6533 154.279 43.9023L155.519 41.7667ZM152.801 41.0523C151.812 41.0523 150.885 41.2829 150.052 41.7667L151.292 43.9023C151.716 43.6562 152.208 43.5218 152.801 43.5218V41.0523ZM150.052 41.7667C149.225 42.2471 148.567 42.9251 148.081 43.7695L150.221 45.0017C150.506 44.5079 150.862 44.1519 151.292 43.9023L150.052 41.7667ZM148.067 43.7944C147.582 44.6848 147.369 45.71 147.369 46.8187H149.839C149.839 46.0215 149.991 45.4247 150.235 44.9769L148.067 43.7944ZM147.369 46.8187C147.369 47.9136 147.584 48.9305 148.06 49.8295L150.243 48.6741C149.989 48.1944 149.839 47.5892 149.839 46.8187H147.369ZM148.081 49.8679C148.567 50.7123 149.225 51.3904 150.052 51.8707L151.292 49.7351C150.862 49.4855 150.506 49.1295 150.221 48.6357L148.081 49.8679ZM150.052 51.8707C150.885 52.3545 151.812 52.5851 152.801 52.5851V50.1156C152.208 50.1156 151.716 49.9812 151.292 49.7351L150.052 51.8707ZM158.324 55V51.6545H155.855V55H158.324ZM158.324 51.6776L158.415 46.8114L155.946 46.7652L155.855 51.6313L158.324 51.6776ZM158.413 46.7108L158.109 41.875L155.644 42.03L155.948 46.8658L158.413 46.7108ZM158.111 41.9525V32.433H155.642V41.9525H158.111ZM156.876 33.6678H161.621V31.1983H156.876V33.6678ZM160.386 32.433V55H162.856V32.433H160.386ZM161.621 53.7653H157.089V56.2347H161.621V53.7653ZM166.012 55H164.777V56.2347H166.012V55ZM166.012 38.6374V37.4027H164.777V38.6374H166.012ZM170.757 38.6374H171.991V37.4027H170.757V38.6374ZM170.757 55V56.2347H171.991V55H170.757ZM166.255 35.5961L165.417 36.5021L165.417 36.5021L166.255 35.5961ZM166.255 31.8248L167.094 32.7308L167.094 32.7308L166.255 31.8248ZM170.513 31.7943L169.693 32.7172L169.703 32.7258L169.713 32.7343L170.513 31.7943ZM170.513 35.5961L171.369 36.4861L171.37 36.4855L170.513 35.5961ZM167.247 55V38.6374H164.777V55H167.247ZM166.012 39.8722H170.757V37.4027H166.012V39.8722ZM169.522 38.6374V55H171.991V38.6374H169.522ZM170.757 53.7653H166.012V56.2347H170.757V53.7653ZM168.384 35.1217C167.768 35.1217 167.376 34.9505 167.094 34.69L165.417 36.5021C166.23 37.2555 167.257 37.5911 168.384 37.5911V35.1217ZM167.094 34.6901C166.801 34.4183 166.669 34.1188 166.669 33.7104H164.2C164.2 34.8024 164.615 35.76 165.417 36.5021L167.094 34.6901ZM166.669 33.7104C166.669 33.302 166.801 33.0025 167.094 32.7308L165.417 30.9187C164.615 31.6608 164.2 32.6184 164.2 33.7104H166.669ZM167.094 32.7308C167.376 32.4704 167.768 32.2992 168.384 32.2992V29.8297C167.257 29.8297 166.23 30.1654 165.417 30.9188L167.094 32.7308ZM168.384 32.2992C169.015 32.2992 169.413 32.4684 169.693 32.7172L171.334 30.8715C170.519 30.147 169.498 29.8297 168.384 29.8297V32.2992ZM169.713 32.7343C169.971 32.9547 170.1 33.2128 170.1 33.6192H172.569C172.569 32.5251 172.15 31.5667 171.314 30.8544L169.713 32.7343ZM170.1 33.6192C170.1 34.0896 169.952 34.4226 169.657 34.7066L171.37 36.4855C172.17 35.7152 172.569 34.7302 172.569 33.6192H170.1ZM169.658 34.706C169.409 34.9451 169.032 35.1217 168.384 35.1217V37.5911C169.521 37.5911 170.564 37.2608 171.369 36.4861L169.658 34.706Z" fill="black"/>
</g>
<path d="M190.168 55.7135H181.043C178.025 55.7135 175.578 53.2666 175.578 50.2481V41.124C175.578 38.1056 178.025 35.6586 181.043 35.6586H190.168C193.186 35.6586 195.633 38.1056 195.633 41.124V50.2481C195.633 53.2666 193.186 55.7135 190.168 55.7135Z" fill="#FFDF34"/>
<path d="M190.168 55.7135H181.043C178.025 55.7135 175.578 53.2666 175.578 50.2481V41.124C175.578 38.1056 178.025 35.6586 181.043 35.6586H190.168C193.186 35.6586 195.633 38.1056 195.633 41.124V50.2481C195.633 53.2666 193.186 55.7135 190.168 55.7135Z" fill="white" fill-opacity="0.2"/>
<path d="M190.168 55.7135H181.043C178.025 55.7135 175.578 53.2666 175.578 50.2481V41.124C175.578 38.1056 178.025 35.6586 181.043 35.6586H190.168C193.186 35.6586 195.633 38.1056 195.633 41.124V50.2481C195.633 53.2666 193.186 55.7135 190.168 55.7135Z" stroke="black" stroke-width="1.23474"/>
<path d="M179.126 42.2479C179.126 40.5682 180.487 39.2065 182.167 39.2065H189.043C190.723 39.2065 192.085 40.5682 192.085 42.2479V49.1241C192.085 50.8038 190.723 52.1654 189.043 52.1654H182.167C180.487 52.1654 179.126 50.8038 179.126 49.1241V42.2479Z" fill="white"/>
<path d="M186.226 41.8831L186.437 42.5349C186.644 43.1708 187.237 43.6014 187.905 43.6014H188.591C189.488 43.6014 189.861 44.7494 189.135 45.2766L188.581 45.6795C188.04 46.0725 187.813 46.7691 188.02 47.4051L188.232 48.0569C188.509 48.91 187.532 49.6195 186.807 49.0922L186.252 48.6894C185.711 48.2964 184.979 48.2964 184.438 48.6894L183.883 49.0922C183.158 49.6195 182.181 48.91 182.458 48.0569L182.67 47.4051C182.877 46.7691 182.65 46.0725 182.109 45.6795L181.555 45.2766C180.829 44.7494 181.202 43.6014 182.099 43.6014H182.785C183.453 43.6014 184.046 43.1708 184.252 42.5349L184.464 41.8831C184.741 41.0299 185.949 41.0299 186.226 41.8831Z" fill="#FFDF34" stroke="black" stroke-width="0.617372"/>
<defs>
<filter id="filter0_d_74_122" x="0.312614" y="0.650749" width="201.436" height="85.1279" filterUnits="userSpaceOnUse" color-interpolation-filters="sRGB">
<feFlood flood-opacity="0" result="BackgroundImageFix"/>
<feColorMatrix in="SourceAlpha" type="matrix" values="0 0 0 0 0 0 0 0 0 0 0 0 0 0 0 0 0 0 127 0" result="hardAlpha"/>
<feOffset/>
<feGaussianBlur stdDeviation="15.2069"/>
<feColorMatrix type="matrix" values="0 0 0 0 0.558333 0 0 0 0 0.52809 0 0 0 0 0.52809 0 0 0 0.25 0"/>
<feBlend mode="normal" in2="BackgroundImageFix" result="effect1_dropShadow_74_122"/>
<feBlend mode="normal" in="SourceGraphic" in2="effect1_dropShadow_74_122" result="shape"/>
</filter>
<filter id="filter1_d_74_122" x="0.312614" y="0.650749" width="201.436" height="85.1279" filterUnits="userSpaceOnUse" color-interpolation-filters="sRGB">
<feFlood flood-opacity="0" result="BackgroundImageFix"/>
<feColorMatrix in="SourceAlpha" type="matrix" values="0 0 0 0 0 0 0 0 0 0 0 0 0 0 0 0 0 0 127 0" result="hardAlpha"/>
<feOffset/>
<feGaussianBlur stdDeviation="15.2069"/>
<feColorMatrix type="matrix" values="0 0 0 0 0.558333 0 0 0 0 0.52809 0 0 0 0 0.52809 0 0 0 0.25 0"/>
<feBlend mode="normal" in2="BackgroundImageFix" result="effect1_dropShadow_74_122"/>
<feBlend mode="normal" in="SourceGraphic" in2="effect1_dropShadow_74_122" result="shape"/>
</filter>
</defs>
</svg>
