<svg width="187" height="59" viewBox="0 0 187 59" fill="none" xmlns="http://www.w3.org/2000/svg">
<g filter="url(#filter0_d_74_143)">
<path d="M185 2H4V54.4583H185V27.8128V2Z" fill="#FFD500"/>
<path d="M185 2H4V54.4583H185V27.8128V2Z" stroke="black" stroke-width="2.57979" stroke-linecap="round" stroke-linejoin="round"/>
</g>
<circle cx="155" cy="29" r="18.5" fill="#FDE034" stroke="black"/>
<g clip-path="url(#clip0_74_143)">
<path fill-rule="evenodd" clip-rule="evenodd" d="M156.666 19.6666C156.666 19.4928 156.72 19.3233 156.821 19.1818C156.922 19.0404 157.065 18.934 157.229 18.8776C157.394 18.8212 157.572 18.8176 157.738 18.8674C157.905 18.9171 158.052 19.0176 158.158 19.1549L163.991 26.6549C164.105 26.8012 164.167 26.9813 164.167 27.1666C164.167 27.3519 164.105 27.532 163.991 27.6783L158.158 35.1783C158.052 35.3156 157.905 35.4161 157.738 35.4658C157.572 35.5156 157.394 35.512 157.229 35.4556C157.065 35.3992 156.922 35.2928 156.821 35.1514C156.72 35.0099 156.666 34.8404 156.666 34.6666V31.3416C152.184 31.4349 150.031 32.2858 148.949 33.2108C147.921 34.0899 147.732 35.1241 147.536 36.2074L147.486 36.4866C147.448 36.6864 147.339 36.8656 147.179 36.9905C147.019 37.1154 146.818 37.1775 146.615 37.165C146.412 37.1525 146.221 37.0663 146.077 36.9227C145.934 36.779 145.847 36.5878 145.835 36.3849C145.692 34.0949 145.906 30.7766 147.524 28.0008C149.094 25.3066 151.921 23.2349 156.666 23.0183V19.6666Z" fill="black"/>
</g>
<path d="M36.7273 26.125H39.2273C38.9091 23.8239 36.8807 22.2045 34.25 22.2045C31.1761 22.2045 28.8068 24.4205 28.8068 28.1932C28.8068 31.875 31.0227 34.1591 34.3011 34.1591C37.2386 34.1591 39.3352 32.3011 39.3352 29.2386V27.7727H34.4659V29.625H36.9659C36.9318 31.0682 35.9489 31.983 34.3125 31.983C32.4659 31.983 31.3011 30.6023 31.3011 28.1705C31.3011 25.75 32.5114 24.3807 34.2898 24.3807C35.5568 24.3807 36.4148 25.0341 36.7273 26.125ZM44.7631 34.1705C46.9221 34.1705 48.3767 33.1193 48.7176 31.5L46.479 31.3523C46.2346 32.017 45.6096 32.3636 44.8028 32.3636C43.5926 32.3636 42.8256 31.5625 42.8256 30.2614V30.2557H48.7687V29.5909C48.7687 26.625 46.9733 25.1591 44.6665 25.1591C42.0983 25.1591 40.4335 26.983 40.4335 29.6761C40.4335 32.4432 42.0756 34.1705 44.7631 34.1705ZM42.8256 28.7557C42.8767 27.7614 43.6324 26.9659 44.7062 26.9659C45.7574 26.9659 46.4846 27.7159 46.4903 28.7557H42.8256ZM54.6383 25.2727H52.9963V23.1818H50.5758V25.2727H49.3826V27.0909H50.5758V31.6364C50.5645 33.3466 51.7292 34.1932 53.4849 34.1193C54.1099 34.0966 54.5531 33.9716 54.7974 33.892L54.4167 32.0909C54.2974 32.1136 54.0417 32.1705 53.8145 32.1705C53.3315 32.1705 52.9963 31.9886 52.9963 31.3182V27.0909H54.6383V25.2727ZM65.5721 25.7102H67.9301C67.896 23.6364 66.1914 22.2045 63.6005 22.2045C61.0494 22.2045 59.1801 23.6136 59.1914 25.7273C59.1857 27.4432 60.396 28.4261 62.3619 28.8977L63.6289 29.2159C64.896 29.5227 65.6005 29.8864 65.6062 30.6705C65.6005 31.5227 64.7937 32.1023 63.5437 32.1023C62.2653 32.1023 61.3448 31.5114 61.2653 30.3466H58.8846C58.9471 32.8636 60.7482 34.1648 63.5721 34.1648C66.413 34.1648 68.0835 32.8068 68.0892 30.6761C68.0835 28.7386 66.6232 27.7102 64.6005 27.2557L63.5551 27.0057C62.5437 26.7727 61.6971 26.3977 61.7142 25.5625C61.7142 24.8125 62.3789 24.2614 63.5835 24.2614C64.7596 24.2614 65.4812 24.7955 65.5721 25.7102ZM73.9886 25.2727H72.3465V23.1818H69.9261V25.2727H68.7329V27.0909H69.9261V31.6364C69.9147 33.3466 71.0795 34.1932 72.8352 34.1193C73.4602 34.0966 73.9034 33.9716 74.1477 33.892L73.767 32.0909C73.6477 32.1136 73.392 32.1705 73.1647 32.1705C72.6818 32.1705 72.3465 31.9886 72.3465 31.3182V27.0909H73.9886V25.2727ZM77.7019 34.1648C78.9917 34.1648 79.8269 33.6023 80.2531 32.7898H80.3212V34H82.6167V28.1136C82.6167 26.0341 80.8553 25.1591 78.9121 25.1591C76.8212 25.1591 75.4462 26.1591 75.111 27.75L77.3496 27.9318C77.5144 27.3523 78.0315 26.9261 78.9008 26.9261C79.7246 26.9261 80.1962 27.3409 80.1962 28.0568V28.0909C80.1962 28.6534 79.5996 28.7273 78.0826 28.875C76.3553 29.0341 74.8042 29.6136 74.8042 31.5625C74.8042 33.2898 76.0371 34.1648 77.7019 34.1648ZM78.3951 32.4943C77.6508 32.4943 77.1167 32.1477 77.1167 31.483C77.1167 30.8011 77.6792 30.4659 78.5315 30.3466C79.0599 30.2727 79.9235 30.1477 80.2133 29.9545V30.8807C80.2133 31.7955 79.4576 32.4943 78.3951 32.4943ZM84.1425 34H86.563V29.0625C86.563 27.9886 87.3471 27.25 88.4153 27.25C88.7505 27.25 89.2107 27.3068 89.438 27.3807V25.233C89.2221 25.1818 88.9209 25.1477 88.6766 25.1477C87.6994 25.1477 86.8982 25.7159 86.58 26.7955H86.4891V25.2727H84.1425V34ZM95.417 25.2727H93.7749V23.1818H91.3545V25.2727H90.1613V27.0909H91.3545V31.6364C91.3431 33.3466 92.5079 34.1932 94.2635 34.1193C94.8885 34.0966 95.3317 33.9716 95.576 33.892L95.1954 32.0909C95.076 32.1136 94.8204 32.1705 94.5931 32.1705C94.1101 32.1705 93.7749 31.9886 93.7749 31.3182V27.0909H95.417V25.2727ZM100.525 34.1705C102.684 34.1705 104.139 33.1193 104.48 31.5L102.241 31.3523C101.997 32.017 101.372 32.3636 100.565 32.3636C99.3547 32.3636 98.5877 31.5625 98.5877 30.2614V30.2557H104.531V29.5909C104.531 26.625 102.735 25.1591 100.429 25.1591C97.8604 25.1591 96.1956 26.983 96.1956 29.6761C96.1956 32.4432 97.8377 34.1705 100.525 34.1705ZM98.5877 28.7557C98.6388 27.7614 99.3945 26.9659 100.468 26.9659C101.52 26.9659 102.247 27.7159 102.252 28.7557H98.5877ZM108.974 34.142C110.383 34.142 111.116 33.3295 111.452 32.6023H111.554V34H113.94V22.3636H111.525V26.7386H111.452C111.128 26.0284 110.429 25.1591 108.969 25.1591C107.054 25.1591 105.435 26.6477 105.435 29.6477C105.435 32.5682 106.986 34.142 108.974 34.142ZM109.741 32.2159C108.554 32.2159 107.906 31.1591 107.906 29.6364C107.906 28.125 108.543 27.0852 109.741 27.0852C110.918 27.0852 111.577 28.0795 111.577 29.6364C111.577 31.1932 110.906 32.2159 109.741 32.2159Z" fill="black"/>
<defs>
<filter id="filter0_d_74_143" x="0.130296" y="0.710205" width="186.16" height="57.6179" filterUnits="userSpaceOnUse" color-interpolation-filters="sRGB">
<feFlood flood-opacity="0" result="BackgroundImageFix"/>
<feColorMatrix in="SourceAlpha" type="matrix" values="0 0 0 0 0 0 0 0 0 0 0 0 0 0 0 0 0 0 127 0" result="hardAlpha"/>
<feOffset dx="-2.57979" dy="2.57979"/>
<feColorMatrix type="matrix" values="0 0 0 0 0 0 0 0 0 0 0 0 0 0 0 0 0 0 1 0"/>
<feBlend mode="normal" in2="BackgroundImageFix" result="effect1_dropShadow_74_143"/>
<feBlend mode="normal" in="SourceGraphic" in2="effect1_dropShadow_74_143" result="shape"/>
</filter>
<clipPath id="clip0_74_143">
<rect width="20" height="20" fill="white" transform="matrix(-1 0 0 1 165 18)"/>
</clipPath>
</defs>
</svg>
