<svg width="36" height="48" viewBox="0 0 36 48" fill="none" xmlns="http://www.w3.org/2000/svg">
<g filter="url(#filter0_d_74_142)">
<path d="M6.96037 2.58537L31.0458 26.6708C32.84 28.465 31.3989 31.5198 28.8732 31.276L17.8421 30.2114C17.0378 30.1338 16.2409 30.4198 15.6695 30.9912L6.7934 39.8673C5.08473 41.576 2.16362 40.3575 2.17568 37.9411L2.34264 4.4846C2.35463 2.08122 5.2609 0.885896 6.96037 2.58537Z" fill="#FFD500"/>
<path d="M6.96037 2.58537L31.0458 26.6708C32.84 28.465 31.3989 31.5198 28.8732 31.276L17.8421 30.2114C17.0378 30.1338 16.2409 30.4198 15.6695 30.9912L6.7934 39.8673C5.08473 41.576 2.16362 40.3575 2.17568 37.9411L2.34264 4.4846C2.35463 2.08122 5.2609 0.885896 6.96037 2.58537Z" stroke="#030303" stroke-width="2.70502"/>
</g>
<defs>
<filter id="filter0_d_74_142" x="0.823242" y="0.432617" width="35.0839" height="46.9979" filterUnits="userSpaceOnUse" color-interpolation-filters="sRGB">
<feFlood flood-opacity="0" result="BackgroundImageFix"/>
<feColorMatrix in="SourceAlpha" type="matrix" values="0 0 0 0 0 0 0 0 0 0 0 0 0 0 0 0 0 0 127 0" result="hardAlpha"/>
<feOffset dx="2.70502" dy="5.41004"/>
<feColorMatrix type="matrix" values="0 0 0 0 0.9375 0 0 0 0 0.855469 0 0 0 0 0.855469 0 0 0 1 0"/>
<feBlend mode="normal" in2="BackgroundImageFix" result="effect1_dropShadow_74_142"/>
<feBlend mode="normal" in="SourceGraphic" in2="effect1_dropShadow_74_142" result="shape"/>
</filter>
</defs>
</svg>
